<svg width="14" height="15" viewBox="0 0 14 15" fill="none" xmlns="http://www.w3.org/2000/svg">
<g clip-path="url(#clip0_394_4453)">
<rect width="14" height="14" transform="translate(0 0.399994)" fill="white" fill-opacity="0.01"/>
<path d="M12.6247 6.80612H3.48249L8.95437 2.05612C9.04187 1.97956 8.98874 1.83737 8.87312 1.83737H7.4903C7.42937 1.83737 7.37155 1.85925 7.32624 1.89831L1.42155 7.02175C1.36747 7.06862 1.3241 7.12658 1.29438 7.19168C1.26465 7.25679 1.24927 7.32752 1.24927 7.39909C1.24927 7.47066 1.26465 7.54139 1.29438 7.6065C1.3241 7.6716 1.36747 7.72956 1.42155 7.77643L7.36062 12.9311C7.38405 12.9514 7.41218 12.9624 7.44187 12.9624H8.87155C8.98718 12.9624 9.0403 12.8186 8.9528 12.7436L3.48249 7.99362H12.6247C12.6934 7.99362 12.7497 7.93737 12.7497 7.86862V6.93112C12.7497 6.86237 12.6934 6.80612 12.6247 6.80612Z" fill="black" fill-opacity="0.25"/>
</g>
<defs>
<clipPath id="clip0_394_4453">
<rect width="14" height="14" fill="white" transform="translate(0 0.399994)"/>
</clipPath>
</defs>
</svg>
