<svg width="27" height="71" viewBox="0 0 27 71" fill="none" xmlns="http://www.w3.org/2000/svg">
<path d="M4.33199 53.6164L2.44152 50.0589L2.82786 49.8536L2.62256 49.4672L1.47203 47.3021C0.83377 46.101 0.5 44.7616 0.5 43.4014L0.5 41.4095V40.972H0.0625L0.0625 37.8631H0.5L0.5 37.4256L0.5 33.4417V33.0042H0.0625L0.0625 29.8953H0.5V29.4578L0.5 25.4739L0.5 25.0364H0.0625L0.0625 21.9275H0.5V21.49L0.5 17.5061V17.0686H0.0625L0.0625 13.9597H0.5L0.5 13.5222L0.5 9.53834L0.5 9.10084H0.0625L0.0625 5.99194H0.5V5.55444L0.5 3.5625C0.5 3.1761 0.576821 2.80875 0.715613 2.47406L0.883199 2.06993L0.506262 1.91362C0.792624 1.42189 1.20315 1.01137 1.69487 0.725011L1.85118 1.10195L2.25531 0.934363C2.59001 0.795571 2.95736 0.71875 3.34375 0.71875L5.80469 0.71875H6.24219V0.28125L10.2891 0.28125V0.71875H10.7266L15.6484 0.71875H16.0859V0.28125L20.1328 0.28125V0.71875H20.5703L23.0312 0.71875C23.4176 0.71875 23.785 0.795571 24.1197 0.934363L24.5238 1.10195L24.6801 0.725012C25.1719 1.01137 25.5824 1.4219 25.8687 1.91362L25.4918 2.06993L25.6594 2.47406C25.7982 2.80876 25.875 3.17611 25.875 3.5625V5.55445V5.99195H26.3125V9.10084H25.875V9.53834V13.5222V13.9597H26.3125V17.0686H25.875V17.5061V21.49V21.9275H26.3125V25.0364H25.875V25.4739V29.4578V29.8953H26.3125V33.0042H25.875V33.4417V37.4256V37.8631H26.3125V40.972H25.875V41.4095V43.4014C25.875 44.7616 25.5412 46.101 24.903 47.3021L23.7524 49.4672L23.5471 49.8536L23.9335 50.0589L22.043 53.6164L21.6567 53.4111L21.4514 53.7975L19.1503 58.1278L18.945 58.5141L19.3314 58.7194L17.4409 62.277L17.0545 62.0717L16.8492 62.458L15.6987 64.6232C15.4381 65.1136 15.0733 65.4812 14.6563 65.7308L14.2809 65.9555L14.4903 66.3052C13.6631 66.6582 12.7119 66.6582 11.8847 66.3053L12.0941 65.9555L11.7187 65.7308C11.3017 65.4812 10.9369 65.1136 10.6763 64.6232L9.52575 62.458L9.32046 62.0717L8.93411 62.277L7.04365 58.7194L7.42999 58.5141L7.22469 58.1278L4.92362 53.7975L4.71833 53.4111L4.33199 53.6164Z" fill="#FAFAFA" fill-opacity="0.3" stroke="#7D97CF" stroke-width="0.875" stroke-linecap="square" stroke-dasharray="4.38 4.38"/>
</svg>
