<svg width="199" height="164" viewBox="0 0 199 164" fill="none" xmlns="http://www.w3.org/2000/svg">
<path d="M99.6698 163.81C140.183 163.81 173.026 157.667 173.026 150.088C173.026 142.51 140.183 136.366 99.6698 136.366C59.1565 136.366 26.314 142.51 26.314 150.088C26.314 157.667 59.1565 163.81 99.6698 163.81Z" fill="#F5F5F7" fill-opacity="0.8"/>
<path fill-rule="evenodd" clip-rule="evenodd" d="M158.354 109.776L132.467 77.8811C131.225 76.3798 129.409 75.4709 127.498 75.4709H71.8399C69.9291 75.4709 68.1135 76.3798 66.8714 77.8811L40.9858 109.776V126.439H158.355V109.776H158.354Z" fill="#AEB8C2"/>
<path fill-rule="evenodd" clip-rule="evenodd" d="M62.9178 34.3049H136.421C137.569 34.3049 138.669 34.7614 139.481 35.574C140.293 36.3865 140.749 37.4886 140.749 38.6377V139.748C140.749 140.897 140.293 141.999 139.481 142.812C138.669 143.624 137.569 144.081 136.421 144.081H62.9178C61.77 144.081 60.6691 143.624 59.8575 142.812C59.0458 141.999 58.5898 140.897 58.5898 139.748V38.6377C58.5898 37.4886 59.0458 36.3865 59.8575 35.574C60.6691 34.7614 61.77 34.3049 62.9178 34.3049V34.3049Z" fill="#F5F5F7"/>
<path fill-rule="evenodd" clip-rule="evenodd" d="M72.4914 45.0859H126.847C127.421 45.0859 127.972 45.3142 128.378 45.7205C128.783 46.1267 129.011 46.6778 129.011 47.2523V74.2858C129.011 74.8603 128.783 75.4114 128.378 75.8176C127.972 76.2239 127.421 76.4522 126.847 76.4522H72.4914C71.9175 76.4522 71.3671 76.2239 70.9612 75.8176C70.5554 75.4114 70.3274 74.8603 70.3274 74.2858V47.2523C70.3274 46.6778 70.5554 46.1267 70.9612 45.7205C71.3671 45.3142 71.9175 45.0859 72.4914 45.0859ZM72.7749 88.2125H126.564C127.213 88.2125 127.836 88.4706 128.295 88.9301C128.754 89.3896 129.011 90.0128 129.011 90.6627C129.011 91.3125 128.754 91.9357 128.295 92.3952C127.836 92.8547 127.213 93.1129 126.564 93.1129H72.7749C72.1258 93.1129 71.5032 92.8547 71.0443 92.3952C70.5853 91.9357 70.3274 91.3125 70.3274 90.6627C70.3274 90.0128 70.5853 89.3896 71.0443 88.9301C71.5032 88.4706 72.1258 88.2125 72.7749 88.2125ZM72.7749 100.954H126.564C127.213 100.954 127.836 101.212 128.295 101.672C128.754 102.132 129.012 102.755 129.012 103.405C129.012 104.055 128.754 104.678 128.295 105.138C127.836 105.597 127.213 105.856 126.564 105.856H72.7749C72.1256 105.856 71.503 105.597 71.0439 105.138C70.5848 104.678 70.3269 104.055 70.3269 103.405C70.3269 102.755 70.5848 102.132 71.0439 101.672C71.503 101.212 72.1256 100.954 72.7749 100.954ZM158.115 148.076C157.276 151.402 154.331 153.881 150.828 153.881H48.5112C45.0077 153.881 42.0625 151.401 41.2251 148.076C41.0653 147.442 40.9847 146.79 40.9849 146.137V109.777H69.4607C72.6061 109.777 75.1412 112.428 75.1412 115.648V115.691C75.1412 118.909 77.7055 121.508 80.8509 121.508H118.488C121.633 121.508 124.198 118.885 124.198 115.666V115.653C124.198 112.434 126.733 109.776 129.878 109.776H158.354V146.138C158.354 146.806 158.271 147.455 158.115 148.076Z" fill="#DCE0E6"/>
<path fill-rule="evenodd" clip-rule="evenodd" d="M161.694 36.0619L154.304 38.9324C154.114 39.0063 153.907 39.0251 153.707 38.9865C153.507 38.948 153.322 38.8537 153.173 38.7145C153.024 38.5753 152.918 38.3969 152.866 38.1997C152.814 38.0026 152.818 37.7947 152.879 37.6001L154.975 30.8766C152.173 27.6877 150.529 23.799 150.529 19.6027C150.529 8.77609 161.476 0 174.982 0C188.484 0 199.433 8.77609 199.433 19.6027C199.433 30.4293 188.485 39.2054 174.981 39.2054C170.081 39.2054 165.52 38.0507 161.694 36.0619Z" fill="#DCE0E6"/>
<path d="M184.613 23.1426C186.316 23.1426 187.696 21.7774 187.696 20.0934C187.696 18.4094 186.316 17.0442 184.613 17.0442C182.911 17.0442 181.531 18.4094 181.531 20.0934C181.531 21.7774 182.911 23.1426 184.613 23.1426Z" fill="white"/>
<path fill-rule="evenodd" clip-rule="evenodd" d="M168.431 22.7614H162.266L165.402 17.4255L168.431 22.7614ZM172.284 17.4255H177.678V22.7614H172.284V17.4255Z" fill="white"/>
</svg>
