<svg width="14" height="14" viewBox="0 0 14 14" fill="none" xmlns="http://www.w3.org/2000/svg">
<path d="M12.0001 6.25195H10.9376V2.75195C10.9376 1.64727 10.0422 0.751953 8.93756 0.751953H5.06256C3.95787 0.751953 3.06256 1.64727 3.06256 2.75195V6.25195H2.00006C1.7235 6.25195 1.50006 6.47539 1.50006 6.75195V12.752C1.50006 13.0285 1.7235 13.252 2.00006 13.252H12.0001C12.2766 13.252 12.5001 13.0285 12.5001 12.752V6.75195C12.5001 6.47539 12.2766 6.25195 12.0001 6.25195ZM4.18756 2.75195C4.18756 2.26914 4.57975 1.87695 5.06256 1.87695H8.93756C9.42037 1.87695 9.81256 2.26914 9.81256 2.75195V6.25195H4.18756V2.75195ZM11.3751 12.127H2.62506V7.37695H11.3751V12.127ZM6.56256 9.95508V10.7832C6.56256 10.852 6.61881 10.9082 6.68756 10.9082H7.31256C7.38131 10.9082 7.43756 10.852 7.43756 10.7832V9.95508C7.56654 9.86248 7.66281 9.73134 7.71252 9.58054C7.76222 9.42974 7.76279 9.26706 7.71415 9.11591C7.66551 8.96477 7.57017 8.83295 7.44185 8.73945C7.31352 8.64594 7.15884 8.59556 7.00006 8.59556C6.84128 8.59556 6.6866 8.64594 6.55828 8.73945C6.42995 8.83295 6.33461 8.96477 6.28597 9.11591C6.23733 9.26706 6.2379 9.42974 6.28761 9.58054C6.33731 9.73134 6.43358 9.86248 6.56256 9.95508Z" fill="#BFBFBF"/>
</svg>
