<svg width="14" height="14" viewBox="0 0 14 14" fill="none" xmlns="http://www.w3.org/2000/svg">
<g clip-path="url(#clip0_589_4447)">
<rect width="14" height="14" fill="white" fill-opacity="0.01"/>
<g clip-path="url(#clip1_589_4447)">
<path d="M12.5627 10.4384H11.4643C11.3893 10.4384 11.319 10.4712 11.2721 10.529C11.1627 10.6618 11.0455 10.7899 10.9221 10.9118C10.4172 11.4172 9.81924 11.8199 9.16116 12.0978C8.47938 12.3857 7.74658 12.5335 7.00648 12.5321C6.25804 12.5321 5.53304 12.3853 4.85179 12.0978C4.19371 11.8199 3.59571 11.4172 3.09085 10.9118C2.58509 10.4082 2.18181 9.81121 1.90335 9.154C1.61429 8.47275 1.46898 7.74932 1.46898 7.00088C1.46898 6.25244 1.61585 5.529 1.90335 4.84775C2.18148 4.18994 2.58148 3.59775 3.09085 3.08994C3.60023 2.58213 4.19241 2.18213 4.85179 1.904C5.53304 1.6165 6.25804 1.46963 7.00648 1.46963C7.75491 1.46963 8.47991 1.61494 9.16116 1.904C9.82054 2.18213 10.4127 2.58213 10.9221 3.08994C11.0455 3.21338 11.1612 3.3415 11.2721 3.47275C11.319 3.53057 11.3909 3.56338 11.4643 3.56338H12.5627C12.6612 3.56338 12.7221 3.454 12.6674 3.37119C11.469 1.50869 9.3721 0.275878 6.98929 0.282128C3.24554 0.291503 0.243976 3.33057 0.281476 7.06963C0.318976 10.7493 3.31585 13.7196 7.00648 13.7196C9.38304 13.7196 11.4705 12.4884 12.6674 10.6306C12.7205 10.5478 12.6612 10.4384 12.5627 10.4384ZM13.9518 6.90244L11.7346 5.15244C11.6518 5.08682 11.5315 5.14619 11.5315 5.25088V6.43838H6.62523C6.55648 6.43838 6.50023 6.49463 6.50023 6.56338V7.43838C6.50023 7.50713 6.55648 7.56338 6.62523 7.56338H11.5315V8.75088C11.5315 8.85557 11.6534 8.91494 11.7346 8.84932L13.9518 7.09932C13.9667 7.08762 13.9788 7.07268 13.9871 7.05563C13.9954 7.03857 13.9998 7.01985 13.9998 7.00088C13.9998 6.98191 13.9954 6.96318 13.9871 6.94613C13.9788 6.92907 13.9667 6.91413 13.9518 6.90244Z" fill="#192B51"/>
</g>
</g>
<defs>
<clipPath id="clip0_589_4447">
<rect width="14" height="14" fill="white"/>
</clipPath>
<clipPath id="clip1_589_4447">
<rect width="14" height="14" fill="white"/>
</clipPath>
</defs>
</svg>
