<svg width="179" height="64" viewBox="0 0 179 64" fill="none" xmlns="http://www.w3.org/2000/svg">
<path d="M37.738 29.5801C36.7315 24.9087 33.9527 20.6748 29.6751 17.2725C28.6249 16.4301 27.87 15.905 27.87 16.0144C27.87 16.0362 28.1107 16.5723 28.4061 17.1959C29.4673 19.4496 29.9267 21.4297 30.0252 24.0772C30.069 25.4557 30.0471 26.1777 29.9049 27.1405C29.3032 31.2758 27.5746 34.9408 24.949 37.6539L24.1394 38.4854L25.7586 38.0149C27.8153 37.4023 30.7363 36.8115 32.3555 36.6693C35.003 36.4286 36.7424 36.9647 37.0378 38.1243C37.1253 38.4416 37.1472 38.4088 37.366 37.5883C37.8693 35.6738 37.9787 34.8204 37.9787 32.7199C37.9787 31.0461 37.9349 30.4991 37.738 29.5801Z" fill="#9D7128"/>
<path d="M26.4697 30.3678C26.7651 28.6393 26.6994 25.6088 26.3384 23.9131C26.2071 23.3114 25.9227 22.2612 25.7039 21.5829C25.321 20.4123 25.135 20.1497 25.135 20.7733C25.135 21.2437 24.6098 23.6506 24.2051 25.0618C22.6953 30.2584 19.9275 34.8532 16.6017 37.6977C16.1203 38.1025 15.7374 38.4635 15.7593 38.4744C15.7702 38.4854 16.3063 38.4307 16.9299 38.3322C18.5709 38.0915 21.3169 38.0915 21.9842 38.3322L22.4984 38.5291L22.9141 38.0696C23.5596 37.3695 24.5552 35.8269 25.0912 34.722C25.7476 33.3654 26.1962 31.9322 26.4697 30.3678Z" fill="#9D7128"/>
<path d="M38.1865 43.8898C39.0618 42.6645 40.4183 39.9404 40.2761 39.6997C40.1886 39.5684 11.602 39.5903 11.5145 39.7216C11.427 39.8748 12.5429 42.577 12.8164 42.8724C13.1008 43.1677 12.5976 43.113 20.0478 43.66C23.297 43.9007 26.0321 44.1195 26.1196 44.1414C26.2071 44.1633 25.0803 44.1852 23.6034 44.1961C16.9955 44.2289 9.61914 44.5762 8.43761 44.8935L8 45.0138L8.31727 45.1014C8.71111 45.2108 11.9603 45.4733 14.8376 45.6374C18.229 45.8234 19.4434 45.9984 19.2683 46.2938C19.2027 46.3923 18.363 46.5373 16.3282 46.7889C15.5514 46.8874 14.7856 47.0187 14.6325 47.0734L14.359 47.1828L14.709 47.3359C15.8687 47.8282 22.6625 48.1345 28.0013 47.9376C33.3401 47.7407 35.6047 47.4016 34.3247 46.9858C34.1168 46.9093 33.1869 46.778 32.2679 46.6795C30.5503 46.4826 29.9924 46.3622 30.1018 46.1872C30.244 45.9575 31.4802 45.8371 34.9701 45.684C39.565 45.4761 41.3045 45.3448 42.1359 45.1151C42.3328 45.0604 42.3328 45.0494 42.1578 44.951C41.9281 44.8197 39.3681 44.5352 38.46 44.5352C38.11 44.5352 37.8255 44.5024 37.8255 44.4696C37.8255 44.4258 37.9896 44.1742 38.1865 43.8898Z" fill="#9D7128"/>
<path d="M90.5473 16.0306C90.524 16.0889 89.9062 17.581 89.1834 19.3412C86.7355 25.3444 85.1268 29.1912 84.4274 30.7299L83.728 32.2803H84.4508H85.1851L85.325 31.2894C85.4532 30.3219 85.9661 28.4452 86.3392 27.501L86.5257 27.0347L89.673 27.058L92.8204 27.093L93.8462 29.6575L94.872 32.222L96.1193 32.257C96.807 32.2686 97.3316 32.2453 97.2966 32.187C97.2733 32.1404 95.7929 28.5268 94.021 24.1671C92.2375 19.8191 90.7571 16.1822 90.6988 16.0889C90.6522 16.0073 90.5823 15.9723 90.5473 16.0306ZM92.5173 26.4169L92.5872 26.685H89.6614C87.7147 26.685 86.7355 26.65 86.7355 26.5684C86.7355 26.4402 89.3466 19.924 89.5565 19.5277C89.6497 19.3528 89.9295 19.9473 91.0602 22.7333C91.8295 24.6217 92.4823 26.277 92.5173 26.4169Z" fill="white"/>
<path d="M126.881 16.089C123.408 16.4154 120.668 18.7468 119.759 22.1389C119.479 23.1881 119.479 25.636 119.759 26.6851C120.249 28.4919 121.275 30.019 122.65 30.9865C124.235 32.1055 126.112 32.6068 128.269 32.4786C132.057 32.2571 134.89 30.0073 135.834 26.4636C136.137 25.3096 136.16 23.1414 135.881 21.9641C134.936 18.0124 131.346 15.6694 126.881 16.089ZM128.642 16.4271C130.763 16.7768 132.628 18.7235 133.293 21.2763C133.957 23.8525 133.736 26.8483 132.71 28.9815C132.139 30.1705 131.229 31.1264 130.122 31.6626C129.248 32.0939 129.213 32.1055 127.884 32.1055C126.613 32.1055 126.497 32.0822 125.751 31.7325C123.21 30.5319 121.799 27.4778 121.974 23.596C122.137 20.2855 123.396 17.8609 125.483 16.8817C126.602 16.3571 127.464 16.2289 128.642 16.4271Z" fill="white"/>
<path d="M55.495 16.2638C54.1661 16.6252 53.1053 17.4994 52.5575 18.7117C52.3593 19.1547 52.301 19.4927 52.301 20.2155C52.3127 21.4977 52.6041 22.1505 53.5949 23.0714C54.236 23.6775 54.714 23.9573 56.8122 24.9831C59.5166 26.312 60.2043 26.8249 60.6473 27.8157C60.9387 28.4685 60.962 29.5876 60.7056 30.1937C60.4491 30.8115 59.843 31.441 59.1785 31.7791C57.5816 32.6067 54.8072 32.0705 53.0004 30.5901L52.3826 30.0888L52.1961 30.7299L52.0212 31.3711L52.5458 31.5925C53.9096 32.1754 56.206 32.5717 57.6398 32.4785C58.8288 32.3969 59.6681 32.1288 60.5657 31.5226C62.6057 30.1588 63.0952 27.1746 61.5915 25.3445C61.0087 24.6451 60.1927 24.1205 57.8963 23.0131C56.649 22.4069 55.3668 21.6959 55.0287 21.4278C53.9213 20.5535 53.5716 19.213 54.1428 18.0007C54.4692 17.3012 54.7956 16.9865 55.495 16.6718C57.022 16.0073 58.9571 16.4037 60.7172 17.7442C61.4283 18.2921 61.44 18.2921 61.5449 18.0356C61.848 17.208 61.8363 17.1847 61.1019 16.8466C59.4467 16.1006 57.0337 15.8558 55.495 16.2638Z" fill="white"/>
<path d="M69.1335 24.2953V32.2803L73.8779 32.257L78.6339 32.222L78.7971 31.6042C78.8903 31.2661 78.937 30.963 78.902 30.9281C78.867 30.9048 78.3774 31.0097 77.8062 31.1729C76.3025 31.6042 74.8571 31.814 73.0269 31.849L71.4066 31.8723L71.3717 27.9789L71.3483 24.0855L73.295 24.1554C74.3791 24.2021 75.6148 24.3186 76.0694 24.4119C76.5123 24.5052 76.9203 24.5868 76.9669 24.5868C77.0252 24.5868 77.0602 24.2953 77.0602 23.934C77.0602 23.3628 77.0369 23.2928 76.862 23.3628C76.3841 23.5376 75.2534 23.6659 73.365 23.7358L71.3483 23.8057V20.2387V16.6601H72.6073C74.0994 16.6601 75.8945 16.9049 77.3866 17.3012C77.9928 17.4644 78.5057 17.5926 78.529 17.5926C78.5872 17.5926 78.494 16.9049 78.3774 16.5086C78.3308 16.322 78.0044 16.3104 73.7263 16.3104H69.1335V24.2953Z" fill="white"/>
<path d="M103.288 24.2837V32.2803H104.395H105.503V28.9231C105.503 27.0697 105.526 25.531 105.55 25.5076C105.573 25.4843 106.039 25.4843 106.575 25.5193C107.1 25.5543 107.962 25.5426 108.475 25.496C111.809 25.2046 113.838 23.1646 113.628 20.3087C113.488 18.4436 112.509 17.3129 110.457 16.6484C109.711 16.4153 109.361 16.3803 106.47 16.3337L103.288 16.2871V24.2837ZM109.256 17.0448C110.061 17.4411 110.655 18.1055 111.005 18.9798C111.215 19.516 111.261 19.8774 111.261 20.9148C111.261 22.5235 110.993 23.3045 110.166 24.1205C109.361 24.9365 108.569 25.2046 107.007 25.2046C106.331 25.2046 105.713 25.1696 105.643 25.123C105.538 25.0647 105.503 23.9573 105.503 20.8332V16.6368L107.053 16.6834C108.464 16.7184 108.65 16.7417 109.256 17.0448Z" fill="white"/>
<path d="M142.921 24.2837V32.2803H144.029H145.136V28.6667V25.0531H146.162C146.92 25.0531 147.258 25.0997 147.456 25.2396C147.607 25.3445 149.193 27.0697 150.988 29.063C152.771 31.0564 154.287 32.7 154.357 32.7233C154.415 32.7466 154.462 32.1987 154.462 31.3827V30.0072L152.002 27.2795C150.662 25.7875 149.566 24.5402 149.589 24.5285C149.612 24.5052 150.114 24.2488 150.697 23.9573C152.538 23.0248 153.296 21.9407 153.296 20.2038C153.296 18.4436 152.224 17.243 150.137 16.6485C149.239 16.4037 148.89 16.3687 146.045 16.3338L142.921 16.2871V24.2837ZM149.169 17.1264C149.694 17.3945 150.09 17.6976 150.347 18.0357C151.314 19.3179 151.326 21.4628 150.358 22.9782C149.496 24.342 148.167 24.8549 146.022 24.6451L145.136 24.5635V20.6002V16.6368L146.756 16.6835C148.33 16.7184 148.388 16.7301 149.169 17.1264Z" fill="white"/>
<path d="M158.786 16.9749C158.716 17.3362 158.658 17.6743 158.658 17.7209C158.658 17.7676 159.031 17.651 159.474 17.4645C160.605 16.9865 161.945 16.6602 162.761 16.6602C163.332 16.6602 163.437 16.6951 163.437 16.8583C163.437 16.9749 163.449 20.4719 163.472 24.6451L163.496 32.222H164.603H165.71L165.745 24.4353L165.769 16.6602H166.445C167.261 16.6602 168.601 16.9865 169.732 17.4645C170.175 17.651 170.548 17.7676 170.548 17.7209C170.548 17.6743 170.49 17.3362 170.42 16.9749L170.28 16.3104H164.603H158.926L158.786 16.9749Z" fill="white"/>
<path d="M52.0912 43.2028C52.0562 43.2378 52.0212 44.3219 52.0212 45.5925V47.9005H52.4875H52.9538V47.2011V46.5017H53.5366C54.1195 46.5017 54.1195 46.5017 54.6207 47.1894C55.0637 47.8306 55.1453 47.8889 55.5533 47.8889C55.7864 47.9005 55.9846 47.8655 55.9846 47.8306C55.9846 47.7956 55.7747 47.4692 55.5183 47.1195C55.2618 46.7581 55.052 46.4201 55.052 46.3735C55.052 46.3268 55.1569 46.2452 55.2968 46.2103C55.9263 46.0121 56.1944 44.6949 55.7631 43.9838C55.425 43.4243 54.8772 43.2378 53.4434 43.1795C52.744 43.1445 52.1378 43.1562 52.0912 43.2028ZM54.8305 44.1587C55.0404 44.3219 55.1103 44.4967 55.1103 44.8697C55.1103 45.5808 54.7956 45.8023 53.7581 45.8023H52.9538V44.8697V43.9372H53.7581C54.3759 43.9372 54.6207 43.9838 54.8305 44.1587Z" fill="white"/>
<path d="M58.4904 43.2145C58.4554 43.2494 58.4321 44.3219 58.4321 45.5925V47.9005H60.1807H61.9292V47.5508V47.2011H60.5886H59.2481V46.56V45.9188H60.4138H61.5795V45.5691V45.2311L60.4488 45.1961L59.3064 45.1612L59.2714 44.5433L59.2365 43.9372H60.507C61.731 43.9372 61.7893 43.9255 61.8476 43.6807C61.9875 43.1795 61.7776 43.1095 60.1107 43.1329C59.2481 43.1445 58.5254 43.1795 58.4904 43.2145Z" fill="white"/>
<path d="M64.8788 43.3427C64.156 43.6808 63.853 44.3685 64.1677 45.033C64.3542 45.441 64.6922 45.6391 65.6831 45.9189C66.6389 46.1753 67.012 46.4901 66.8138 46.8631C66.5457 47.3643 65.5665 47.4343 64.6689 47.003C64.3076 46.8281 64.2376 46.8281 64.1327 46.968C63.7597 47.5509 64.6806 48.0521 65.9512 47.9705C66.8021 47.9239 67.3384 47.6674 67.5831 47.2011C67.8163 46.7465 67.8046 46.4085 67.5249 45.9539C67.3384 45.6391 67.1635 45.5342 66.4524 45.3361C65.2751 44.998 65.0303 44.8581 64.9837 44.4968C64.9137 43.8906 65.8812 43.6225 66.7905 43.9955C67.0236 44.0888 67.2218 44.1587 67.2334 44.1471C67.2451 44.1237 67.3267 43.9839 67.4083 43.8323C67.5715 43.5176 67.4899 43.4243 66.8255 43.2378C66.196 43.063 65.415 43.0979 64.8788 43.3427Z" fill="white"/>
<path d="M71.3132 43.261C69.8677 43.7623 69.2499 45.5225 70.0542 46.828C70.5438 47.6207 71.1966 47.9587 72.2574 47.9587C72.9684 47.9587 73.1549 47.9121 73.6445 47.609C74.4605 47.1078 74.7869 46.455 74.7286 45.4409C74.6936 44.8347 74.612 44.5666 74.3673 44.1819C73.7844 43.3077 72.3856 42.888 71.3132 43.261ZM73.1666 44.147C73.5862 44.3917 73.936 45.0329 73.936 45.5458C73.936 46.0703 73.5629 46.7464 73.1433 46.9912C72.677 47.271 71.7678 47.2593 71.3015 46.9796C70.6487 46.5832 70.3806 45.6274 70.707 44.8347C71.0917 43.9371 72.2224 43.6107 73.1666 44.147Z" fill="white"/>
<path d="M77.1532 43.2028C77.1182 43.2494 77.0833 44.3219 77.0833 45.5925V47.9005H77.5495H78.0158V47.2011V46.5017H78.6336H79.2514L79.741 47.2011C80.2073 47.8539 80.2656 47.9005 80.7085 47.9005H81.1748L80.6502 47.1661L80.1257 46.4317L80.522 46.117C81.4895 45.336 81.2331 43.809 80.0557 43.3543C79.6827 43.2028 77.2698 43.0862 77.1532 43.2028ZM79.9392 44.2286C80.1257 44.4035 80.2306 44.6483 80.2306 44.8697C80.2306 45.0912 80.1257 45.336 79.9392 45.5109C79.6944 45.7673 79.5545 45.8023 78.8318 45.8023H78.0158V44.8697V43.9372H78.8318C79.5545 43.9372 79.6944 43.9722 79.9392 44.2286Z" fill="white"/>
<path d="M82.8651 43.2028C82.8301 43.2494 82.7952 43.4243 82.7952 43.6108V43.9372H83.6111H84.4271V45.9188V47.9005H84.8351H85.2431V45.9188V43.9372H86.0707H86.8867L86.8517 43.5525L86.8168 43.1795L84.8817 43.1562C83.8093 43.1445 82.9001 43.1678 82.8651 43.2028Z" fill="white"/>
<path d="M93.0998 43.2261C92.7617 43.3777 92.3537 43.9139 92.3537 44.217C92.3537 44.3452 92.4586 44.6366 92.5985 44.8581L92.8317 45.2428L92.377 45.6741C91.3046 46.6649 91.8175 47.8423 93.3562 47.9821C93.9274 48.0288 94.1372 47.9938 94.5802 47.7607L95.1281 47.4809L95.4428 47.7373L95.7692 47.9938L95.979 47.749C96.1772 47.5042 96.1772 47.4809 95.8974 47.1895C95.606 46.8864 95.606 46.8747 95.8042 46.4667C96.0256 45.9888 95.979 45.744 95.6176 45.6508C95.4544 45.6041 95.3495 45.6508 95.3146 45.779C95.1164 46.3851 95.1164 46.3851 94.5918 45.9189L94.0789 45.4643L94.5569 45.0096C95.1281 44.4734 95.1863 44.0072 94.7667 43.5176C94.5569 43.2728 94.3704 43.2028 93.9157 43.1679C93.601 43.1445 93.228 43.1679 93.0998 43.2261ZM94.2655 43.9605C94.4286 44.217 94.2655 44.5084 93.8225 44.7532C93.5311 44.9164 93.4961 44.9047 93.3329 44.7066C93.1347 44.4268 93.1231 44.0305 93.3096 43.844C93.5194 43.6341 94.1139 43.7157 94.2655 43.9605ZM94.044 46.3851C94.3587 46.6999 94.5918 46.9796 94.5569 47.003C94.0323 47.4809 92.8083 47.3643 92.6451 46.8398C92.5286 46.4901 92.9949 45.814 93.3446 45.8023C93.4145 45.8023 93.7292 46.0588 94.044 46.3851Z" fill="white"/>
<path d="M101.621 43.2145C101.586 43.2494 101.563 44.3219 101.563 45.5925V47.9005H102.029H102.484L102.519 46.4201L102.554 44.928L103.3 46.187C103.813 47.0612 104.104 47.4342 104.232 47.4109C104.337 47.3876 104.757 46.8164 105.176 46.1287L105.934 44.8697L105.969 46.3851L106.004 47.9005H106.4H106.808V45.5342V43.1562L106.47 43.1445C106.144 43.1329 106.062 43.2494 105.211 44.7065C104.71 45.5575 104.279 46.2686 104.244 46.2686C104.209 46.2686 103.766 45.5691 103.253 44.7182C102.437 43.366 102.285 43.1795 102.006 43.1678C101.831 43.1562 101.656 43.1795 101.621 43.2145Z" fill="white"/>
<path d="M111.04 43.2261C110.935 43.2844 108.906 47.6907 108.906 47.8422C108.906 47.8772 109.093 47.9005 109.326 47.9005C109.699 47.9005 109.757 47.8539 109.967 47.376L110.2 46.8514H111.401H112.613L112.835 47.376C113.033 47.8655 113.068 47.9005 113.488 47.9005C113.721 47.9005 113.919 47.8772 113.919 47.8422C113.919 47.7723 111.926 43.3194 111.856 43.2494C111.786 43.1562 111.156 43.1445 111.04 43.2261ZM111.867 45.0796C112.1 45.6158 112.287 46.0704 112.287 46.0937C112.287 46.1287 111.891 46.152 111.401 46.152C110.737 46.152 110.527 46.117 110.573 46.0004C110.818 45.3593 111.389 44.0538 111.413 44.0771C111.424 44.1004 111.634 44.5433 111.867 45.0796Z" fill="white"/>
<path d="M116.111 43.1795C116.052 43.2378 116.017 44.3219 116.017 45.5924V47.9005H116.425H116.822L116.857 47.2244L116.892 46.56L117.498 46.525L118.104 46.49L118.593 47.2011C119.06 47.8539 119.13 47.9005 119.549 47.9005C120.051 47.9005 120.051 47.9122 119.433 47.0729C119.223 46.7698 119.048 46.5017 119.048 46.4551C119.048 46.4201 119.235 46.2103 119.468 46.0004C120.26 45.2777 120.109 44.0188 119.165 43.4826C118.792 43.2727 118.442 43.2028 117.439 43.1562C116.752 43.1212 116.157 43.1329 116.111 43.1795ZM118.745 44.182C118.978 44.3685 119.048 44.52 119.048 44.8697C119.048 45.5458 118.663 45.8023 117.638 45.8023H116.833V44.8697V43.9372H117.638C118.267 43.9372 118.5 43.9838 118.745 44.182Z" fill="white"/>
<path d="M122.394 43.1911C122.347 43.2378 122.312 44.3219 122.312 45.5925V47.9005H122.778H123.245L123.221 45.5342L123.186 43.1795L122.837 43.1445C122.638 43.1212 122.44 43.1445 122.394 43.1911Z" fill="white"/>
<path d="M125.984 43.2145C125.949 43.2494 125.926 44.3219 125.926 45.5925V47.9005H126.334H126.73L126.765 46.3035L126.8 44.7065L128.082 46.3035C129.26 47.7606 129.4 47.9005 129.749 47.9005H130.122L130.099 45.5342L130.064 43.1795H129.714H129.365L129.306 44.7998L129.248 46.4084L128.141 45.0446C127.534 44.2985 126.952 43.5758 126.847 43.4476C126.683 43.2378 126.124 43.0862 125.984 43.2145Z" fill="white"/>
<path d="M134.365 43.2145C134.237 43.2844 132.22 47.6441 132.22 47.8306C132.22 47.8655 132.407 47.9005 132.628 47.9005C133.013 47.9005 133.06 47.8539 133.27 47.376L133.491 46.8514H134.715H135.927L136.149 47.376C136.347 47.8655 136.382 47.9005 136.813 47.9005C137.116 47.9005 137.245 47.8539 137.198 47.749C136.895 46.9563 135.181 43.2727 135.088 43.2145C135.018 43.1678 134.855 43.1212 134.727 43.1212C134.598 43.1212 134.435 43.1678 134.365 43.2145ZM135.181 45.0912C135.414 45.6391 135.601 46.0937 135.601 46.117C135.601 46.1403 135.205 46.152 134.727 46.152C134.249 46.152 133.852 46.117 133.852 46.082C133.852 45.9771 134.692 44.0421 134.727 44.0771C134.738 44.1004 134.948 44.555 135.181 45.0912Z" fill="white"/>
</svg>
