<svg width="14" height="14" viewBox="0 0 14 14" fill="none" xmlns="http://www.w3.org/2000/svg">
<g clip-path="url(#clip0_316_1029)">
<path d="M13.5 1.49719H0.5C0.223437 1.49719 0 1.72063 0 1.99719V11.9972C0 12.2738 0.223437 12.4972 0.5 12.4972H13.5C13.7766 12.4972 14 12.2738 14 11.9972V1.99719C14 1.72063 13.7766 1.49719 13.5 1.49719ZM12.875 3.22844V11.3722H1.125V3.22844L0.69375 2.89251L1.30781 2.10344L1.97656 2.62376H12.025L12.6938 2.10344L13.3078 2.89251L12.875 3.22844ZM12.025 2.62219L7 6.52844L1.975 2.62219L1.30625 2.10188L0.692188 2.89094L1.12344 3.22688L6.46094 7.37688C6.61444 7.49613 6.80328 7.56087 6.99766 7.56087C7.19203 7.56087 7.38088 7.49613 7.53438 7.37688L12.875 3.22844L13.3062 2.89251L12.6922 2.10344L12.025 2.62219Z" fill="#BFBFBF"/>
</g>
<defs>
<clipPath id="clip0_316_1029">
<rect width="14" height="14" fill="white"/>
</clipPath>
</defs>
</svg>
