<svg width="116" height="120" viewBox="0 0 116 120" fill="none" xmlns="http://www.w3.org/2000/svg">
<g filter="url(#filter0_d_126_10480)">
<path d="M8 0H108V106C108 108.209 106.209 110 104 110H12C9.79086 110 8 108.209 8 106V0Z" fill="#192B51"/>
</g>
<path d="M68.4914 37.4632C67.6398 33.5199 65.2886 29.9461 61.6692 27.074C60.7805 26.363 60.1418 25.9197 60.1418 26.0121C60.1418 26.0305 60.3454 26.483 60.5954 27.0094C61.4933 28.9118 61.8821 30.5833 61.9654 32.8181C62.0024 33.9817 61.9839 34.5912 61.8636 35.4038C61.3544 38.8946 59.8919 41.9882 57.6702 44.2784L56.9852 44.9803L58.3552 44.5832C60.0955 44.066 62.5671 43.5674 63.9371 43.4473C66.1772 43.2441 67.6491 43.6967 67.899 44.6755C67.973 44.9433 67.9916 44.9156 68.1767 44.223C68.6025 42.6069 68.6951 41.8866 68.6951 40.1136C68.6951 38.7006 68.6581 38.2389 68.4914 37.4632Z" fill="#9D7128"/>
<path d="M58.9569 38.1281C59.2068 36.669 59.1513 34.111 58.8458 32.6796C58.7348 32.1716 58.4941 31.2851 58.3089 30.7126C57.9849 29.7244 57.8276 29.5028 57.8276 30.0292C57.8276 30.4263 57.3833 32.4579 57.0408 33.6492C55.7633 38.0357 53.4213 41.9143 50.6073 44.3154C50.2 44.6571 49.876 44.9618 49.8945 44.971C49.9038 44.9803 50.3573 44.9341 50.885 44.851C52.2735 44.6478 54.597 44.6478 55.1616 44.851L55.5967 45.0172L55.9484 44.6294C56.4946 44.0383 57.337 42.7362 57.7906 41.8035C58.346 40.6584 58.7255 39.4487 58.9569 38.1281Z" fill="#9D7128"/>
<path d="M68.871 49.5423C69.6115 48.508 70.7593 46.2085 70.639 46.0053C70.565 45.8945 46.3769 45.913 46.3029 46.0238C46.2288 46.1531 47.173 48.4341 47.4044 48.6834C47.6451 48.9328 47.2193 48.8866 53.5232 49.3483C56.2724 49.5515 58.5866 49.7362 58.6607 49.7547C58.7348 49.7731 57.7813 49.7916 56.5316 49.8008C50.9405 49.8285 44.6991 50.1217 43.6994 50.3895L43.3291 50.4911L43.5976 50.565C43.9308 50.6573 46.6801 50.879 49.1146 51.0175C51.9842 51.1745 53.0117 51.3222 52.8636 51.5716C52.8081 51.6547 52.0976 51.7771 50.3759 51.9895C49.7186 52.0726 49.0706 52.1834 48.9411 52.2296L48.7096 52.3219L49.0058 52.4512C49.9871 52.8668 55.7355 53.1254 60.2529 52.9591C64.7702 52.7929 66.6864 52.5066 65.6033 52.1557C65.4274 52.0911 64.6406 51.9802 63.863 51.8971C62.4097 51.7309 61.9376 51.6293 62.0302 51.4816C62.1505 51.2876 63.1965 51.1861 66.1495 51.0568C70.0373 50.8813 71.5091 50.7705 72.2127 50.5766C72.3793 50.5304 72.3793 50.5211 72.2312 50.438C72.0368 50.3272 69.8707 50.0871 69.1024 50.0871C68.8062 50.0871 68.5655 50.0594 68.5655 50.0317C68.5655 49.9948 68.7043 49.7824 68.871 49.5423Z" fill="#9D7128"/>
<path d="M43.8958 62.0331C43.8801 62.0722 43.4648 63.0751 42.979 64.2583C41.3336 68.2934 40.2524 70.8791 39.7823 71.9134L39.3121 72.9554H39.7979H40.2915L40.3856 72.2894C40.4718 71.6391 40.8165 70.3776 41.0672 69.743L41.1926 69.4296L43.3081 69.4452L45.4237 69.4687L46.1132 71.1925L46.8027 72.9163L47.641 72.9398C48.1033 72.9476 48.4559 72.9319 48.4324 72.8928C48.4167 72.8614 47.4217 70.4325 46.2307 67.5021C45.0319 64.5795 44.0368 62.1349 43.9976 62.0722C43.9663 62.0174 43.9193 61.9939 43.8958 62.0331ZM45.2199 69.0143L45.267 69.1945H43.3003C41.9918 69.1945 41.3336 69.171 41.3336 69.1162C41.3336 69.03 43.0887 64.65 43.2298 64.3836C43.2925 64.2661 43.4805 64.6657 44.2405 66.5383C44.7577 67.8077 45.1964 68.9203 45.2199 69.0143Z" fill="white"/>
<path d="M68.3182 62.0723C65.9833 62.2917 64.142 63.8588 63.5308 66.1389C63.3428 66.844 63.3428 68.4894 63.5308 69.1946C63.8599 70.4091 64.5494 71.4355 65.474 72.0858C66.5396 72.838 67.801 73.1749 69.2506 73.0888C71.797 72.9399 73.701 71.4277 74.3357 69.0457C74.5394 68.2701 74.5551 66.8127 74.367 66.0213C73.7324 63.3652 71.3191 61.7903 68.3182 62.0723ZM69.5013 62.2996C70.9273 62.5346 72.181 63.8431 72.6276 65.559C73.0742 67.2906 72.9253 69.3043 72.2358 70.7382C71.8519 71.5374 71.2407 72.1799 70.4964 72.5403C69.9087 72.8302 69.8852 72.838 68.992 72.838C68.138 72.838 68.0596 72.8224 67.5581 72.5873C65.8501 71.7803 64.902 69.7274 65.0195 67.1183C65.1292 64.893 65.9754 63.2633 67.3779 62.6051C68.1301 62.2526 68.7099 62.1664 69.5013 62.2996Z" fill="white"/>
<path d="M20.3349 62.1898C19.4417 62.4326 18.7287 63.0203 18.3604 63.8352C18.2272 64.1329 18.188 64.3601 18.188 64.8459C18.1959 65.7078 18.3918 66.1466 19.0578 66.7656C19.4887 67.173 19.81 67.361 21.2203 68.0505C23.0381 68.9438 23.5004 69.2885 23.7981 69.9545C23.994 70.3933 24.0097 71.1455 23.8373 71.5529C23.6649 71.9682 23.2575 72.3913 22.8109 72.6185C21.7374 73.1748 19.8726 72.8144 18.6582 71.8193L18.2429 71.4824L18.1175 71.9133L18 72.3443L18.3526 72.4932C19.2693 72.8849 20.8129 73.1513 21.7766 73.0886C22.5758 73.0338 23.1399 72.8536 23.7433 72.4461C25.1144 71.5294 25.4435 69.5236 24.4328 68.2934C24.041 67.8233 23.4925 67.4707 21.949 66.7264C21.1106 66.319 20.2487 65.841 20.0215 65.6608C19.2772 65.0731 19.0421 64.1721 19.426 63.3572C19.6454 62.8871 19.8648 62.6755 20.3349 62.464C21.3613 62.0174 22.662 62.2838 23.8451 63.1848C24.3231 63.5531 24.3309 63.5531 24.4014 63.3807C24.6051 62.8244 24.5973 62.8087 24.1037 62.5815C22.9911 62.0801 21.3692 61.9155 20.3349 62.1898Z" fill="white"/>
<path d="M29.5022 67.5883V72.9554L32.6912 72.9398L35.888 72.9163L35.9977 72.501C36.0603 72.2738 36.0917 72.0701 36.0682 72.0466C36.0447 72.0309 35.7156 72.1014 35.3317 72.2111C34.3209 72.501 33.3493 72.642 32.1192 72.6655L31.0301 72.6812L31.0066 70.0642L30.9909 67.4472L32.2994 67.4942C33.0281 67.5256 33.8586 67.6039 34.1642 67.6666C34.4619 67.7293 34.7362 67.7842 34.7675 67.7842C34.8067 67.7842 34.8302 67.5883 34.8302 67.3454C34.8302 66.9614 34.8145 66.9144 34.697 66.9614C34.3757 67.079 33.6157 67.1652 32.3464 67.2122L30.9909 67.2592V64.8616V62.4562H31.8371C32.84 62.4562 34.0467 62.6207 35.0496 62.8871C35.457 62.9968 35.8018 63.083 35.8174 63.083C35.8566 63.083 35.7939 62.6207 35.7156 62.3543C35.6842 62.2289 35.4649 62.2211 32.5893 62.2211H29.5022V67.5883Z" fill="white"/>
<path d="M52.4596 67.5804V72.9554H53.2039H53.9483V70.6989C53.9483 69.4531 53.964 68.4188 53.9796 68.4031C53.9953 68.3875 54.3087 68.3875 54.6691 68.411C55.0217 68.4345 55.6015 68.4266 55.9463 68.3953C58.1872 68.1994 59.5505 66.8282 59.4095 64.9086C59.3155 63.655 58.6573 62.8949 57.2783 62.4483C56.7768 62.2916 56.5418 62.2681 54.5986 62.2368L52.4596 62.2054V67.5804ZM56.4713 62.7147C57.0119 62.9811 57.4115 63.4277 57.6466 64.0154C57.7876 64.3758 57.8189 64.6187 57.8189 65.316C57.8189 66.3973 57.6387 66.9223 57.0824 67.4707C56.5418 68.0192 56.009 68.1994 54.9591 68.1994C54.5046 68.1994 54.0893 68.1759 54.0423 68.1446C53.9718 68.1054 53.9483 67.361 53.9483 65.2612V62.4405L54.9904 62.4718C55.9385 62.4953 56.0638 62.511 56.4713 62.7147Z" fill="white"/>
<path d="M79.0996 67.5804V72.9554H79.844H80.5883V70.5265V68.0976H81.2778C81.7871 68.0976 82.0143 68.1289 82.1475 68.2229C82.2494 68.2934 83.315 69.4531 84.5216 70.7929C85.7204 72.1327 86.739 73.2375 86.786 73.2532C86.8252 73.2689 86.8565 72.9006 86.8565 72.3521V71.4276L85.2033 69.5941C84.3022 68.5912 83.5657 67.7528 83.5814 67.745C83.5971 67.7293 83.934 67.5569 84.3257 67.361C85.5637 66.7342 86.073 66.0055 86.073 64.8381C86.073 63.655 85.3522 62.8479 83.9497 62.4483C83.3463 62.2838 83.1113 62.2603 81.1995 62.2368L79.0996 62.2054V67.5804ZM83.2993 62.7696C83.6519 62.9498 83.9183 63.1535 84.0907 63.3807C84.741 64.2426 84.7489 65.6843 84.0985 66.7029C83.5187 67.6196 82.6255 67.9644 81.1838 67.8233L80.5883 67.7685V65.1045V62.4405L81.6774 62.4718C82.7352 62.4953 82.7744 62.5032 83.2993 62.7696Z" fill="white"/>
<path d="M89.7633 62.6677C89.7163 62.9106 89.6771 63.1378 89.6771 63.1692C89.6771 63.2005 89.9279 63.1222 90.2256 62.9968C90.9856 62.6755 91.8867 62.4562 92.4351 62.4562C92.8191 62.4562 92.8896 62.4797 92.8896 62.5894C92.8896 62.6677 92.8974 65.0183 92.9131 67.8233L92.9288 72.9163H93.6731H94.4175L94.441 67.6823L94.4566 62.4562H94.9111C95.4596 62.4562 96.3606 62.6755 97.1206 62.9968C97.4184 63.1222 97.6691 63.2005 97.6691 63.1692C97.6691 63.1378 97.6299 62.9106 97.5829 62.6677L97.4889 62.2211H93.6731H89.8573L89.7633 62.6677Z" fill="white"/>
<path d="M29.0512 80.2971C29.0277 80.3206 29.0042 81.0493 29.0042 81.9033V83.4547H29.3176H29.631V82.9846V82.5145H30.0227C30.4145 82.5145 30.4145 82.5145 30.7514 82.9768C31.0492 83.4077 31.104 83.4469 31.3782 83.4469C31.5349 83.4547 31.6681 83.4312 31.6681 83.4077C31.6681 83.3842 31.5271 83.1648 31.3547 82.9297C31.1824 82.6869 31.0413 82.4596 31.0413 82.4283C31.0413 82.3969 31.1118 82.3421 31.2059 82.3186C31.629 82.1854 31.8092 81.3 31.5193 80.8221C31.2921 80.446 30.9238 80.3206 29.9601 80.2814C29.4899 80.2579 29.0825 80.2658 29.0512 80.2971ZM30.8925 80.9396C31.0335 81.0493 31.0805 81.1668 31.0805 81.4175C31.0805 81.8955 30.8689 82.0444 30.1716 82.0444H29.631V81.4175V80.7907H30.1716C30.5869 80.7907 30.7514 80.8221 30.8925 80.9396Z" fill="white"/>
<path d="M33.3525 80.3049C33.329 80.3284 33.3134 81.0493 33.3134 81.9033V83.4547H34.4886H35.6639V83.2197V82.9846H34.7629H33.8618V82.5537V82.1227H34.6454H35.4289V81.8877V81.6604L34.6689 81.6369L33.901 81.6134L33.8775 81.1981L33.854 80.7907H34.708C35.5307 80.7907 35.5699 80.7829 35.6091 80.6183C35.7031 80.2814 35.5621 80.2344 34.4416 80.2501C33.8618 80.2579 33.376 80.2814 33.3525 80.3049Z" fill="white"/>
<path d="M37.6465 80.3911C37.1607 80.6183 36.957 81.0806 37.1685 81.5272C37.2939 81.8014 37.5211 81.9346 38.1871 82.1227C38.8296 82.2951 39.0803 82.5066 38.9471 82.7573C38.7669 83.0943 38.1087 83.1413 37.5054 82.8514C37.2625 82.7338 37.2155 82.7338 37.145 82.8279C36.8943 83.2196 37.5133 83.5565 38.3673 83.5017C38.9393 83.4703 39.2997 83.298 39.4642 82.9846C39.6209 82.679 39.6131 82.4518 39.4251 82.1462C39.2997 81.9346 39.1822 81.8641 38.7042 81.7309C37.9129 81.5037 37.7483 81.4097 37.717 81.1668C37.67 80.7593 38.3203 80.5791 38.9314 80.8299C39.0882 80.8925 39.2213 80.9395 39.2292 80.9317C39.237 80.916 39.2919 80.822 39.3467 80.7202C39.4564 80.5086 39.4016 80.4459 38.955 80.3206C38.5318 80.203 38.0069 80.2265 37.6465 80.3911Z" fill="white"/>
<path d="M41.9715 80.3363C40.9999 80.6732 40.5846 81.8563 41.1253 82.7339C41.4543 83.2667 41.8931 83.4939 42.6061 83.4939C43.0841 83.4939 43.2094 83.4626 43.5385 83.2588C44.087 82.9219 44.3064 82.4831 44.2672 81.8015C44.2437 81.394 44.1889 81.2138 44.0243 80.9553C43.6326 80.3676 42.6923 80.0855 41.9715 80.3363ZM43.2173 80.9318C43.4994 81.0963 43.7344 81.5272 43.7344 81.872C43.7344 82.2246 43.4837 82.679 43.2016 82.8436C42.8882 83.0316 42.277 83.0238 41.9636 82.8357C41.5249 82.5693 41.3446 81.9268 41.564 81.394C41.8226 80.7907 42.5826 80.5713 43.2173 80.9318Z" fill="white"/>
<path d="M45.8969 80.2971C45.8734 80.3284 45.8499 81.0493 45.8499 81.9033V83.4547H46.1633H46.4767V82.9846V82.5145H46.8919H47.3072L47.6363 82.9846C47.9497 83.4234 47.9889 83.4547 48.2866 83.4547H48.6L48.2475 82.9611L47.8949 82.4675L48.1613 82.2559C48.8116 81.7309 48.6392 80.7045 47.8479 80.3989C47.5971 80.2971 45.9752 80.2187 45.8969 80.2971ZM47.7695 80.9866C47.8949 81.1041 47.9654 81.2687 47.9654 81.4175C47.9654 81.5664 47.8949 81.7309 47.7695 81.8485C47.605 82.0209 47.5109 82.0444 47.0251 82.0444H46.4767V81.4175V80.7907H47.0251C47.5109 80.7907 47.605 80.8142 47.7695 80.9866Z" fill="white"/>
<path d="M49.7362 80.2971C49.7127 80.3284 49.6892 80.446 49.6892 80.5713V80.7907H50.2377H50.7861V82.1227V83.4547H51.0604H51.3346V82.1227V80.7907H51.8909H52.4394L52.4159 80.5321L52.3924 80.2814L51.0917 80.2657C50.3709 80.2579 49.7597 80.2736 49.7362 80.2971Z" fill="white"/>
<path d="M56.6156 80.3128C56.3884 80.4147 56.1141 80.7751 56.1141 80.9788C56.1141 81.065 56.1847 81.2609 56.2787 81.4097L56.4354 81.6683L56.1298 81.9582C55.409 82.6242 55.7537 83.4156 56.788 83.5096C57.1719 83.5409 57.3129 83.5174 57.6107 83.3607L57.9789 83.1727L58.1905 83.3451L58.4099 83.5174L58.5509 83.3529C58.6841 83.1884 58.6841 83.1727 58.4961 82.9768C58.3002 82.7731 58.3002 82.7652 58.4334 82.491C58.5823 82.1698 58.5509 82.0052 58.308 81.9425C58.1983 81.9112 58.1278 81.9425 58.1043 82.0287C57.9711 82.4362 57.9711 82.4362 57.6185 82.1228L57.2738 81.8172L57.595 81.5116C57.9789 81.1512 58.0181 80.8378 57.736 80.5087C57.595 80.3441 57.4696 80.2971 57.1641 80.2736C56.9525 80.258 56.7018 80.2736 56.6156 80.3128ZM57.3991 80.8064C57.5088 80.9788 57.3991 81.1747 57.1014 81.3392C56.9055 81.4489 56.882 81.4411 56.7723 81.3079C56.6391 81.1198 56.6313 80.8534 56.7566 80.7281C56.8977 80.587 57.2973 80.6419 57.3991 80.8064ZM57.2503 82.4362C57.4618 82.6477 57.6185 82.8358 57.595 82.8514C57.2424 83.1727 56.4197 83.0943 56.31 82.7417C56.2317 82.5067 56.5451 82.0522 56.7801 82.0444C56.8271 82.0444 57.0387 82.2168 57.2503 82.4362Z" fill="white"/>
<path d="M62.3433 80.3049C62.3197 80.3284 62.3041 81.0493 62.3041 81.9033V83.4547H62.6175H62.9231L62.9466 82.4596L62.9701 81.4567L63.4715 82.3029C63.8163 82.8906 64.0122 83.1413 64.0984 83.1256C64.1689 83.11 64.4509 82.726 64.733 82.2637L65.2423 81.4175L65.2658 82.4361L65.2893 83.4547H65.5557H65.83V81.8641V80.2657L65.6027 80.2579C65.3833 80.2501 65.3285 80.3284 64.7565 81.3078C64.4196 81.8798 64.1297 82.3578 64.1062 82.3578C64.0827 82.3578 63.7849 81.8877 63.4402 81.3157C62.8917 80.4068 62.7899 80.2814 62.6018 80.2736C62.4843 80.2657 62.3668 80.2814 62.3433 80.3049Z" fill="white"/>
<path d="M68.6741 80.3128C68.6036 80.3519 67.2402 83.3137 67.2402 83.4155C67.2402 83.439 67.3656 83.4547 67.5223 83.4547C67.773 83.4547 67.8122 83.4234 67.9532 83.1021L68.11 82.7495H68.917H69.7319L69.8807 83.1021C70.0139 83.4312 70.0374 83.4547 70.3195 83.4547C70.4762 83.4547 70.6094 83.439 70.6094 83.4155C70.6094 83.3685 69.2696 80.3754 69.2226 80.3284C69.1756 80.2657 68.7524 80.2579 68.6741 80.3128ZM69.2304 81.5586C69.3871 81.919 69.5125 82.2246 69.5125 82.2402C69.5125 82.2637 69.2461 82.2794 68.917 82.2794C68.4704 82.2794 68.3293 82.2559 68.3607 82.1776C68.5252 81.7466 68.9092 80.8691 68.9248 80.8847C68.9327 80.9004 69.0737 81.1981 69.2304 81.5586Z" fill="white"/>
<path d="M72.0826 80.2814C72.0434 80.3206 72.0199 81.0493 72.0199 81.9033V83.4547H72.2941H72.5605L72.584 83.0003L72.6075 82.5536L73.015 82.5301L73.4224 82.5066L73.7515 82.9846C74.0649 83.4234 74.1119 83.4547 74.394 83.4547C74.7309 83.4547 74.7309 83.4625 74.3156 82.8984C74.1746 82.6947 74.0571 82.5145 74.0571 82.4831C74.0571 82.4596 74.1824 82.3186 74.3391 82.1776C74.8719 81.6918 74.7701 80.8456 74.1354 80.4851C73.8847 80.3441 73.6496 80.2971 72.9758 80.2657C72.5135 80.2422 72.1139 80.2501 72.0826 80.2814ZM73.8534 80.9552C74.0101 81.0806 74.0571 81.1825 74.0571 81.4175C74.0571 81.872 73.7985 82.0444 73.109 82.0444H72.5684V81.4175V80.7907H73.109C73.5321 80.7907 73.6888 80.822 73.8534 80.9552Z" fill="white"/>
<path d="M76.3057 80.2893C76.2744 80.3206 76.2509 81.0493 76.2509 81.9033V83.4547H76.5643H76.8777L76.862 81.8641L76.8385 80.2814L76.6034 80.2579C76.4702 80.2422 76.337 80.2579 76.3057 80.2893Z" fill="white"/>
<path d="M78.7191 80.3049C78.6956 80.3284 78.6799 81.0493 78.6799 81.9033V83.4547H78.9542H79.2206L79.2441 82.3813L79.2676 81.3078L80.1295 82.3813C80.9208 83.3607 81.0148 83.4547 81.2499 83.4547H81.5006L81.485 81.8641L81.4615 80.2814H81.2264H80.9913L80.9522 81.3705L80.913 82.4518L80.1686 81.5351C79.7612 81.0336 79.3694 80.5478 79.2989 80.4616C79.1892 80.3206 78.8131 80.2187 78.7191 80.3049Z" fill="white"/>
<path d="M84.3527 80.3049C84.2665 80.3519 82.911 83.2823 82.911 83.4077C82.911 83.4312 83.0364 83.4547 83.1852 83.4547C83.4438 83.4547 83.4752 83.4234 83.6162 83.1021L83.7651 82.7495H84.5878H85.4026L85.5515 83.1021C85.6847 83.4312 85.7082 83.4547 85.9981 83.4547C86.2018 83.4547 86.288 83.4234 86.2567 83.3529C86.053 82.8201 84.9012 80.3441 84.8385 80.3049C84.7915 80.2736 84.6818 80.2422 84.5956 80.2422C84.5094 80.2422 84.3997 80.2736 84.3527 80.3049ZM84.9012 81.5664C85.0579 81.9347 85.1832 82.2402 85.1832 82.2559C85.1832 82.2716 84.9168 82.2794 84.5956 82.2794C84.2744 82.2794 84.008 82.2559 84.008 82.2324C84.008 82.1619 84.5721 80.8612 84.5956 80.8847C84.6034 80.9004 84.7445 81.206 84.9012 81.5664Z" fill="white"/>
<defs>
<filter id="filter0_d_126_10480" x="0" y="-6" width="116" height="126" filterUnits="userSpaceOnUse" color-interpolation-filters="sRGB">
<feFlood flood-opacity="0" result="BackgroundImageFix"/>
<feColorMatrix in="SourceAlpha" type="matrix" values="0 0 0 0 0 0 0 0 0 0 0 0 0 0 0 0 0 0 127 0" result="hardAlpha"/>
<feOffset dy="2"/>
<feGaussianBlur stdDeviation="4"/>
<feColorMatrix type="matrix" values="0 0 0 0 0 0 0 0 0 0 0 0 0 0 0 0 0 0 0.15 0"/>
<feBlend mode="normal" in2="BackgroundImageFix" result="effect1_dropShadow_126_10480"/>
<feBlend mode="normal" in="SourceGraphic" in2="effect1_dropShadow_126_10480" result="shape"/>
</filter>
</defs>
</svg>
