<svg
          width="1392"
          height="708"
          viewBox="0 0 1392 708"
          fill="none"
          xmlns="http://www.w3.org/2000/svg"
        >

          <g id="viewport" clip-path="url(#clip0_264_10123)">
            <rect
              width="1400"
              height="910"
              transform="translate(-4 -101)"
              fill="white"
            />
            <path
              d="M1278.97 -101H1428.81V809H1377.41L1278.97 -101Z"
              fill="#F9F9F9"
            />
            <path d="M-4 -101H1281.73L1382.88 809H-4V-101Z" fill="#EFF4FD" />
            <rect
              width="38.2812"
              height="928.397"
              transform="matrix(0.994324 -0.10639 0.104158 0.994561 1284.57 -108.974)"
              fill="white"
            />
            <rect
              x="1.20147"
              y="0.971437"
              width="36.0938"
              height="926.21"
              transform="matrix(0.994324 -0.10639 0.104158 0.994561 1284.48 -108.841)"
              stroke="#2E4880"
              stroke-opacity="0.2"
              stroke-width="2.1875"
            />
            <rect
              width="38.2812"
              height="928.397"
              transform="matrix(0.994324 -0.10639 0.104158 0.994561 1320.67 -108.974)"
              fill="white"
            />
            <rect
              x="1.20147"
              y="0.971437"
              width="36.0938"
              height="926.21"
              transform="matrix(0.994324 -0.10639 0.104158 0.994561 1320.57 -108.841)"
              stroke="#2E4880"
              stroke-opacity="0.2"
              stroke-width="2.1875"
            />
            <path
              opacity="0.1"
              fill-rule="evenodd"
              clip-rule="evenodd"
              d="M761.986 400.118V414.44C761.986 415.163 762.242 415.826 762.668 416.344H743.031C740.011 416.344 737.562 418.792 737.562 421.813V559H703V487.5C703 486.119 701.881 485 700.5 485C699.119 485 698 486.119 698 487.5V559H631.969V488.047C631.969 486.537 630.745 485.312 629.234 485.312C627.724 485.312 626.5 486.537 626.5 488.047V559H560.875V488.047C560.875 486.537 559.651 485.312 558.141 485.312C556.63 485.312 555.406 486.537 555.406 488.047V559H489.781V488.047C489.781 486.537 488.557 485.312 487.047 485.312C485.537 485.312 484.312 486.537 484.312 488.047V559H418.688V488.047C418.688 486.537 417.463 485.312 415.953 485.312C414.443 485.312 413.219 486.537 413.219 488.047V559H347.594V488.047C347.594 486.537 346.37 485.312 344.859 485.312C343.349 485.312 342.125 486.537 342.125 488.047V559H276.5V488.047C276.5 486.537 275.276 485.312 273.766 485.312C272.255 485.312 271.031 486.537 271.031 488.047V559H208.281C207.043 559 205.965 559.686 205.406 560.699V472.734C205.406 471.224 204.182 470 202.672 470C201.162 470 199.938 471.224 199.938 472.734V659.766C199.938 661.276 201.162 662.5 202.672 662.5C204.182 662.5 205.406 661.276 205.406 659.766V570.301C205.965 571.314 207.043 572 208.281 572H271.031V643.359C271.031 644.87 272.255 646.094 273.766 646.094C275.276 646.094 276.5 644.87 276.5 643.359V572H342.125V643.359C342.125 644.87 343.349 646.094 344.859 646.094C346.37 646.094 347.594 644.87 347.594 643.359V572H413.219V643.359C413.219 644.87 414.443 646.094 415.953 646.094C417.463 646.094 418.688 644.87 418.688 643.359V572H484.312V643.359C484.312 644.87 485.537 646.094 487.047 646.094C488.557 646.094 489.781 644.87 489.781 643.359V572H555.406V643.359C555.406 644.87 556.63 646.094 558.141 646.094C559.651 646.094 560.875 644.87 560.875 643.359V572H626.5V643.359C626.5 644.87 627.724 646.094 629.234 646.094C630.745 646.094 631.969 644.87 631.969 643.359V572H698V643.28C698 644.661 699.119 645.78 700.5 645.78C701.881 645.78 703 644.661 703 643.28V572H737.562V803.531C737.562 806.552 740.011 809 743.031 809H788.969C791.989 809 794.438 806.552 794.438 803.531V421.813C794.438 418.792 791.989 416.344 788.969 416.344H767.3C767.678 415.885 767.923 415.31 767.973 414.676L769.31 397.777C769.434 396.218 770.735 395.016 772.299 395.016C773.955 395.016 775.297 393.673 775.297 392.018V367.964L836 426.561V457.906V464.469V465.563H836.187C836.637 466.837 837.853 467.75 839.281 467.75H891.781V513.141C891.781 514.651 893.005 515.875 894.516 515.875C896.026 515.875 897.25 514.651 897.25 513.141V467.75H939.906V513.141C939.906 514.651 941.131 515.875 942.641 515.875C944.151 515.875 945.375 514.651 945.375 513.141V467.75H988.031V513.141C988.031 514.651 989.256 515.875 990.766 515.875C992.276 515.875 993.5 514.651 993.5 513.141V467.75H1036.16V513.141C1036.16 514.651 1037.38 515.875 1038.89 515.875C1040.4 515.875 1041.62 514.651 1041.62 513.141V467.75H1084.28V513.141C1084.28 514.651 1085.51 515.875 1087.02 515.875C1088.53 515.875 1089.75 514.651 1089.75 513.141V467.75H1132.41V513.141C1132.41 514.651 1133.63 515.875 1135.14 515.875C1136.65 515.875 1137.88 514.651 1137.88 513.141V467.75H1180.53V513.141C1180.53 514.651 1181.76 515.875 1183.27 515.875C1184.78 515.875 1186 514.651 1186 513.141V467.75H1228.66V513.141C1228.66 514.651 1229.88 515.875 1231.39 515.875C1232.9 515.875 1234.12 514.651 1234.12 513.141V467.75H1275.69C1276.07 467.75 1276.44 467.684 1276.78 467.563V513.141C1276.78 514.651 1278.01 515.875 1279.52 515.875C1281.03 515.875 1282.25 514.651 1282.25 513.141V409.234C1282.25 407.724 1281.03 406.5 1279.52 406.5C1278.01 406.5 1276.78 407.724 1276.78 409.234V454.812C1276.44 454.691 1276.07 454.625 1275.69 454.625H1234.12V409.234C1234.12 407.724 1232.9 406.5 1231.39 406.5C1229.88 406.5 1228.66 407.724 1228.66 409.234V454.625H1186V409.234C1186 407.724 1184.78 406.5 1183.27 406.5C1181.76 406.5 1180.53 407.724 1180.53 409.234V454.625H1137.88V409.234C1137.88 407.724 1136.65 406.5 1135.14 406.5C1133.63 406.5 1132.41 407.724 1132.41 409.234V454.625H1089.75V409.234C1089.75 407.724 1088.53 406.5 1087.02 406.5C1085.51 406.5 1084.28 407.724 1084.28 409.234V454.625H1041.62V409.234C1041.62 407.724 1040.4 406.5 1038.89 406.5C1037.38 406.5 1036.16 407.724 1036.16 409.234V454.625H993.5V409.234C993.5 407.724 992.276 406.5 990.766 406.5C989.256 406.5 988.031 407.724 988.031 409.234V454.625H945.375V409.234C945.375 407.724 944.151 406.5 942.641 406.5C941.131 406.5 939.906 407.724 939.906 409.234V454.625H897.25V409.234C897.25 407.724 896.026 406.5 894.516 406.5C893.005 406.5 891.781 407.724 891.781 409.234V454.625H849.125V421.148L849.205 421.066L849.125 420.989V420.719L848.917 420.788L775.297 349.721V284H875.375V337.047C875.375 338.557 876.599 339.781 878.109 339.781C879.62 339.781 880.844 338.557 880.844 337.047V284H935.531V337.047C935.531 338.557 936.756 339.781 938.266 339.781C939.776 339.781 941 338.557 941 337.047V284H995.688V337.047C995.688 338.557 996.912 339.781 998.422 339.781C999.932 339.781 1001.16 338.557 1001.16 337.047V284H1055.84V337.047C1055.84 338.557 1057.07 339.781 1058.58 339.781C1060.09 339.781 1061.31 338.557 1061.31 337.047V284H1116V337.047C1116 338.557 1117.22 339.781 1118.73 339.781C1120.24 339.781 1121.47 338.557 1121.47 337.047V284H1172.88C1174.69 284 1176.16 282.531 1176.16 280.719V337.047C1176.16 338.557 1177.38 339.781 1178.89 339.781C1180.4 339.781 1181.62 338.557 1181.62 337.047V218.922C1181.62 217.412 1180.4 216.188 1178.89 216.188C1177.38 216.188 1176.16 217.412 1176.16 218.922V274.156C1176.16 272.344 1174.69 270.875 1172.88 270.875H1121.47V218.922C1121.47 217.412 1120.24 216.188 1118.73 216.188C1117.22 216.188 1116 217.412 1116 218.922V270.875H1061.31V218.922C1061.31 217.412 1060.09 216.188 1058.58 216.188C1057.07 216.188 1055.84 217.412 1055.84 218.922V270.875H1001.16V218.922C1001.16 217.412 999.932 216.188 998.422 216.188C996.912 216.188 995.688 217.412 995.688 218.922V270.875H941V218.922C941 217.412 939.776 216.188 938.266 216.188C936.756 216.188 935.531 217.412 935.531 218.922V270.875H880.844V218.922C880.844 217.412 879.62 216.188 878.109 216.188C876.599 216.188 875.375 217.412 875.375 218.922V270.875H809.75V218.922C809.75 217.412 808.526 216.188 807.016 216.188C805.505 216.188 804.281 217.412 804.281 218.922V270.875H775.297V221.656C775.297 218.636 772.848 216.188 769.828 216.188H757.25C754.23 216.188 751.781 218.636 751.781 221.656V304.781H686.156V218.922C686.156 217.412 684.932 216.188 683.422 216.188C681.912 216.188 680.688 217.412 680.688 218.922V304.781H615.062V218.922C615.062 217.412 613.838 216.188 612.328 216.188C610.818 216.188 609.594 217.412 609.594 218.922V304.781H543.969V234.234C543.969 232.724 542.745 231.5 541.234 231.5C539.724 231.5 538.5 232.724 538.5 234.234V304.781H472.875V234.234C472.875 232.724 471.651 231.5 470.141 231.5C468.63 231.5 467.406 232.724 467.406 234.234V304.781H401.781V234.234C401.781 232.724 400.557 231.5 399.047 231.5C397.537 231.5 396.312 232.724 396.312 234.234V304.781H330.688V234.234C330.688 232.724 329.463 231.5 327.953 231.5C326.443 231.5 325.219 232.724 325.219 234.234V304.781H259.594V234.234C259.594 232.724 258.37 231.5 256.859 231.5C255.349 231.5 254.125 232.724 254.125 234.234V304.781H188.5V234.234C188.5 232.724 187.276 231.5 185.766 231.5C184.255 231.5 183.031 232.724 183.031 234.234V304.781H120.688C118.875 304.781 117.406 306.25 117.406 308.063V218.922C117.406 217.412 116.182 216.188 114.672 216.188C113.162 216.188 111.938 217.412 111.938 218.922V405.953C111.938 407.463 113.162 408.688 114.672 408.688C116.182 408.688 117.406 407.463 117.406 405.953V314.625C117.406 316.437 118.875 317.906 120.688 317.906H183.031V389.547C183.031 391.057 184.255 392.281 185.766 392.281C187.276 392.281 188.5 391.057 188.5 389.547V317.906H254.125V389.547C254.125 391.057 255.349 392.281 256.859 392.281C258.37 392.281 259.594 391.057 259.594 389.547V317.906H325.219V389.547C325.219 391.057 326.443 392.281 327.953 392.281C329.463 392.281 330.688 391.057 330.688 389.547V317.906H396.312V389.547C396.312 391.057 397.537 392.281 399.047 392.281C400.557 392.281 401.781 391.057 401.781 389.547V317.906H467.406V389.547C467.406 391.057 468.63 392.281 470.141 392.281C471.651 392.281 472.875 391.057 472.875 389.547V317.906H538.5V389.547C538.5 391.057 539.724 392.281 541.234 392.281C542.745 392.281 543.969 391.057 543.969 389.547V317.906H609.594V393.922C609.594 395.432 610.818 396.656 612.328 396.656C613.838 396.656 615.062 395.432 615.062 393.922V317.906H680.688V393.922C680.688 395.432 681.912 396.656 683.422 396.656C684.932 396.656 686.156 395.432 686.156 393.922V317.906H751.781V389.913C751.781 392.731 754.066 395.016 756.884 395.016C759.702 395.016 761.986 397.3 761.986 400.118Z"
              fill="#2E4880"
            />

            <circle id="pivot" class="pivot" cx="74.75" cy="162.594" r="19.6875" fill="#2E4880" />
            <path
              d="M71.255 169.875H68.0111L72.9539 155.557H76.8551L81.7909 169.875H78.547L74.9604 158.829H74.8486L71.255 169.875ZM71.0523 164.247H78.7148V166.61H71.0523V164.247Z"
              fill="#EFF4FD"
            />
            
            <circle cx="1280.06" cy="162.594" r="19.6875" fill="#2E4880" />
            <path
              d="M1274.46 169.875V155.557H1280.19C1281.24 155.557 1282.12 155.713 1282.82 156.025C1283.53 156.338 1284.06 156.771 1284.41 157.326C1284.77 157.876 1284.94 158.509 1284.94 159.227C1284.94 159.787 1284.83 160.278 1284.61 160.702C1284.38 161.122 1284.08 161.467 1283.68 161.737C1283.3 162.003 1282.85 162.192 1282.36 162.303V162.443C1282.9 162.467 1283.41 162.62 1283.89 162.905C1284.37 163.189 1284.76 163.587 1285.05 164.1C1285.35 164.608 1285.5 165.214 1285.5 165.918C1285.5 166.678 1285.31 167.356 1284.94 167.952C1284.56 168.544 1284.01 169.013 1283.28 169.358C1282.55 169.703 1281.64 169.875 1280.57 169.875H1274.46ZM1277.48 167.4H1279.95C1280.79 167.4 1281.41 167.239 1281.8 166.918C1282.18 166.591 1282.38 166.158 1282.38 165.617C1282.38 165.221 1282.28 164.872 1282.09 164.569C1281.9 164.266 1281.63 164.028 1281.27 163.855C1280.92 163.683 1280.5 163.597 1280.02 163.597H1277.48V167.4ZM1277.48 161.548H1279.73C1280.14 161.548 1280.51 161.476 1280.83 161.332C1281.16 161.182 1281.41 160.973 1281.6 160.702C1281.79 160.432 1281.89 160.108 1281.89 159.731C1281.89 159.213 1281.7 158.796 1281.33 158.479C1280.97 158.162 1280.45 158.004 1279.78 158.004H1277.48V161.548Z"
              fill="#EFF4FD"
            />
            <circle cx="1280.06" cy="566.188" r="19.6875" fill="#2E4880" />
            <path
              d="M1286.69 564.163H1283.63C1283.58 563.767 1283.46 563.415 1283.29 563.108C1283.12 562.795 1282.9 562.53 1282.63 562.311C1282.36 562.092 1282.04 561.924 1281.69 561.807C1281.34 561.691 1280.96 561.632 1280.55 561.632C1279.81 561.632 1279.16 561.817 1278.61 562.185C1278.06 562.548 1277.64 563.08 1277.33 563.779C1277.03 564.473 1276.88 565.317 1276.88 566.31C1276.88 567.33 1277.03 568.188 1277.33 568.882C1277.64 569.577 1278.07 570.101 1278.62 570.455C1279.17 570.81 1279.81 570.987 1280.53 570.987C1280.93 570.987 1281.31 570.933 1281.65 570.826C1282 570.719 1282.31 570.563 1282.58 570.358C1282.85 570.148 1283.08 569.894 1283.25 569.596C1283.44 569.297 1283.56 568.957 1283.63 568.575L1286.69 568.589C1286.62 569.246 1286.42 569.88 1286.1 570.49C1285.79 571.096 1285.37 571.639 1284.83 572.119C1284.31 572.595 1283.68 572.972 1282.95 573.252C1282.22 573.527 1281.4 573.665 1280.48 573.665C1279.2 573.665 1278.06 573.376 1277.05 572.798C1276.05 572.22 1275.26 571.383 1274.68 570.288C1274.1 569.192 1273.81 567.866 1273.81 566.31C1273.81 564.748 1274.1 563.42 1274.69 562.325C1275.28 561.229 1276.07 560.395 1277.08 559.822C1278.09 559.244 1279.22 558.955 1280.48 558.955C1281.31 558.955 1282.08 559.071 1282.79 559.304C1283.5 559.537 1284.13 559.878 1284.68 560.325C1285.23 560.768 1285.68 561.311 1286.02 561.954C1286.37 562.597 1286.6 563.334 1286.69 564.163Z"
              fill="#EFF4FD"
            />
            <circle cx="74.6875" cy="566.188" r="19.6875" fill="#2E4880" />
            <path
              d="M74.0022 573.469H68.9265V559.151H74.0441C75.4843 559.151 76.7241 559.437 77.7635 560.01C78.8029 560.579 79.6022 561.397 80.1615 562.464C80.7255 563.532 81.0075 564.809 81.0075 566.296C81.0075 567.787 80.7255 569.069 80.1615 570.141C79.6022 571.213 78.7982 572.036 77.7495 572.609C76.7055 573.182 75.4564 573.469 74.0022 573.469ZM71.9537 570.875H73.8763C74.7712 570.875 75.5239 570.717 76.1345 570.4C76.7498 570.078 77.2112 569.582 77.5188 568.91C77.8311 568.235 77.9872 567.363 77.9872 566.296C77.9872 565.238 77.8311 564.373 77.5188 563.702C77.2112 563.031 76.7521 562.537 76.1415 562.22C75.5309 561.903 74.7782 561.744 73.8833 561.744H71.9537V570.875Z"
              fill="#EFF4FD"
            />
          </g>

          <defs>
            <clipPath id="clip0_264_10123">
              <rect
                width="1400"
                height="910"
                fill="white"
                transform="translate(-4 -101)"
              />
            </clipPath>
          </defs>
        </svg>