<svg width="32" height="24" viewBox="0 0 32 24" fill="none" xmlns="http://www.w3.org/2000/svg">
<g opacity="0.87">
<path d="M16.9247 11.9992L21.6122 6.41166C21.6908 6.31881 21.6247 6.17773 21.5033 6.17773H20.0783C19.9944 6.17773 19.914 6.21523 19.8587 6.27952L15.9926 10.8884L12.1265 6.27952C12.0729 6.21523 11.9926 6.17773 11.9069 6.17773H10.4819C10.3604 6.17773 10.2944 6.31881 10.3729 6.41166L15.0604 11.9992L10.3729 17.5867C10.3553 17.6074 10.344 17.6327 10.3404 17.6596C10.3368 17.6865 10.3409 17.7139 10.3524 17.7386C10.3639 17.7632 10.3822 17.784 10.4051 17.7985C10.4281 17.8131 10.4547 17.8207 10.4819 17.8206H11.9069C11.9908 17.8206 12.0712 17.7831 12.1265 17.7188L15.9926 13.1099L19.8587 17.7188C19.9122 17.7831 19.9926 17.8206 20.0783 17.8206H21.5033C21.6247 17.8206 21.6908 17.6795 21.6122 17.5867L16.9247 11.9992Z" fill="black" fill-opacity="0.25"/>
</g>
</svg>
