<svg width="1439" height="853" viewBox="0 0 1439 853" fill="none" xmlns="http://www.w3.org/2000/svg">
<g clip-path="url(#clip0_126_10241)">
<path d="M1 855.5C257 785.552 1067 708.724 1440 679.054V855.5H1Z" fill="#192B51" fill-opacity="0.15" stroke="#6983BB"/>
<path d="M1338.5 853.924C1050.9 710.247 326.333 677.478 0 679.053V853.924H1338.5Z" fill="#192551" fill-opacity="0.1" stroke="#6983BB"/>
<path d="M507 853.925C881.8 766.962 1285.17 750.735 1440 753.492V853.925H507Z" fill="#192B51" fill-opacity="0.11" stroke="#6983BB"/>
<path d="M1288.63 555.938L1228.15 716.571C1228.15 716.571 1246.05 715.707 1267.6 703.161C1267.6 703.161 1265.78 637.726 1288.63 555.938Z" fill="#CAA871"/>
<path d="M1283.88 574.076C1274.26 598.707 1264.82 639.276 1264.69 665.18C1264.62 679.06 1265.69 692.01 1267.59 702.968C1267.51 699.339 1266.65 644.705 1283.88 574.076Z" fill="#BD9148"/>
<path d="M1228.15 717.001C1227.92 717.001 1227.73 716.822 1227.72 716.593C1227.71 716.357 1227.89 716.154 1228.13 716.143C1228.31 716.135 1246.06 715.141 1267.16 702.917C1267.08 698.335 1266.32 634.174 1288.21 555.824C1288.27 555.593 1288.51 555.457 1288.74 555.525C1288.97 555.589 1289.1 555.826 1289.04 556.054C1266.47 636.836 1268.01 702.495 1268.03 703.148C1268.03 703.306 1267.95 703.454 1267.81 703.532C1246.43 715.987 1228.35 716.993 1228.17 717.003L1228.15 717.001Z" fill="#BD9148"/>
<path d="M1227.18 718.859L1227.13 718.851L1227.05 718.665L1288.49 555.888L1288.68 555.804L1288.76 555.989L1227.32 718.768L1227.18 718.859Z" fill="#192B51"/>
<path d="M1263.31 699.576L1263.05 699.486C1259.4 696.651 1255.95 693.503 1252.79 690.127C1252.63 689.953 1252.64 689.68 1252.81 689.519C1252.98 689.36 1253.26 689.365 1253.42 689.539C1256.55 692.882 1259.96 696 1263.58 698.807C1263.77 698.953 1263.8 699.223 1263.66 699.409C1263.57 699.52 1263.44 699.576 1263.31 699.576Z" fill="#BD9148"/>
<path d="M1265.49 699.027C1265.36 699.026 1265.23 698.965 1265.15 698.849L1261.1 693.245C1260.96 693.053 1261 692.784 1261.2 692.645C1261.39 692.504 1261.66 692.548 1261.8 692.742L1265.84 698.346C1265.98 698.538 1265.94 698.807 1265.75 698.946L1265.49 699.027Z" fill="#BD9148"/>
<path d="M1262.77 702.313H1262.75L1255.41 701.93C1255.17 701.918 1254.99 701.715 1255 701.478C1255.01 701.242 1255.2 701.056 1255.45 701.071L1262.79 701.455C1263.03 701.467 1263.21 701.67 1263.2 701.908C1263.19 702.137 1262.99 702.315 1262.77 702.313Z" fill="#BD9148"/>
<path d="M1248.78 707.915C1248.57 707.914 1248.38 707.758 1248.35 707.543C1248.32 707.307 1248.49 707.091 1248.72 707.061C1252.41 706.564 1256.06 705.686 1259.57 704.449C1259.79 704.371 1260.04 704.488 1260.12 704.711C1260.2 704.935 1260.08 705.181 1259.86 705.26C1256.29 706.514 1252.59 707.408 1248.84 707.911L1248.78 707.915Z" fill="#BD9148"/>
<path d="M1341.78 713.299L1341.57 713.144L1288.77 534.511L1288.91 534.247L1289.18 534.381L1351.53 713.062L1351.39 713.336L1351.12 713.202L1291.7 542.913L1341.98 713.024L1341.84 713.289L1341.78 713.299Z" fill="#192B51"/>
<path d="M1361.52 714.115L1361.32 713.98L1288.77 534.53L1288.89 534.252L1289.17 534.37L1361.72 713.819L1361.6 714.099L1361.52 714.115Z" fill="#192B51"/>
<path d="M1343.29 721.628C1343.29 721.628 1340.94 712.782 1341.66 712.666C1342.37 712.55 1345.07 721.638 1345.07 721.638L1343.29 721.628Z" fill="#192B51"/>
<path d="M1341.66 712.666C1341.39 712.709 1341.55 713.938 1341.84 715.472L1343.06 715.479C1342.48 713.886 1341.93 712.622 1341.66 712.666Z" fill="#192B51" fill-opacity="0.57"/>
<path d="M1352.86 721.676C1352.86 721.676 1350.52 712.829 1351.24 712.714C1351.95 712.598 1354.65 721.686 1354.65 721.686L1352.86 721.676Z" fill="#192B51"/>
<path d="M1351.24 712.714C1350.97 712.757 1351.12 713.988 1351.42 715.521L1352.64 715.527C1352.06 713.936 1351.51 712.67 1351.24 712.714Z" fill="#192B51" fill-opacity="0.57"/>
<path d="M1364.14 722.21C1364.14 722.21 1360.37 712.886 1361.07 712.764C1361.77 712.642 1365.93 722.22 1365.93 722.22L1364.14 722.21Z" fill="#192B51"/>
<path d="M1361.07 712.764C1360.81 712.809 1361.16 714.106 1361.71 715.723L1362.93 715.728C1362.09 714.051 1361.33 712.717 1361.07 712.764Z" fill="#192B51" fill-opacity="0.57"/>
<path d="M1326.68 711.394L1331.05 720.611L1332.07 720.542L1326.68 711.394ZM1330.88 721.196L1330.62 721.033L1323.41 705.834C1323.35 705.695 1323.4 705.528 1323.54 705.458C1323.68 705.386 1323.84 705.434 1323.92 705.565L1332.8 720.653L1332.8 720.933L1332.57 721.083L1330.9 721.194L1330.88 721.196Z" fill="#192B51"/>
<path d="M1288.92 533.734L1287.53 704.326L1329.99 703.68L1288.92 533.734Z" fill="#CAA871"/>
<path d="M1304.71 599.074C1304.99 606.938 1305.06 615.122 1304.9 623.477C1304.01 669.526 1296.3 704.274 1287.63 704.23L1287.53 704.218L1287.53 704.326L1329.99 703.68L1304.71 599.074Z" fill="#BD9148"/>
<path d="M1303.65 595.998L1289.09 595.924C1288.85 595.923 1288.66 595.731 1288.66 595.493C1288.66 595.255 1288.85 595.064 1289.09 595.066L1303.66 595.138C1303.89 595.14 1304.08 595.333 1304.08 595.571C1304.08 595.808 1303.89 595.998 1303.65 595.998Z" fill="#BD9148"/>
<path d="M1318.63 657.84L1288.73 657.69C1288.49 657.688 1288.3 657.497 1288.3 657.258C1288.3 657.02 1288.49 656.83 1288.73 656.831L1318.63 656.982C1318.87 656.983 1319.06 657.175 1319.06 657.413C1319.06 657.651 1318.87 657.842 1318.63 657.84Z" fill="#BD9148"/>
<path d="M1329.99 704.108C1329.79 704.107 1329.62 703.977 1329.57 703.78L1288.5 533.836C1288.44 533.604 1288.58 533.371 1288.82 533.317C1289.04 533.259 1289.28 533.402 1289.33 533.632L1330.41 703.577C1330.46 703.808 1330.32 704.041 1330.09 704.096L1329.99 704.108Z" fill="#BD9148"/>
<path d="M1334.11 705.4L1334.13 703.477C1314.2 703.855 1288.53 703.469 1288.53 703.469L1288.94 705.938C1288.94 705.938 1318.03 705.563 1334.11 705.4Z" fill="#192B51"/>
<path d="M1324.93 700.507L1309.96 700.432C1309.72 700.431 1309.53 700.238 1309.53 699.999C1309.53 699.762 1309.72 699.571 1309.96 699.572L1324.94 699.647C1325.17 699.649 1325.36 699.842 1325.36 700.08C1325.36 700.317 1325.17 700.509 1324.93 700.507Z" fill="#BD9148"/>
<path d="M1307.9 661.792L1293.21 661.718C1292.98 661.717 1292.78 661.524 1292.79 661.287C1292.79 661.049 1292.98 660.858 1293.22 660.86L1307.91 660.934C1308.15 660.934 1308.34 661.127 1308.34 661.365C1308.33 661.603 1308.14 661.793 1307.9 661.792Z" fill="#BD9148"/>
<path d="M1313.74 653.845L1298.97 653.771C1298.73 653.769 1298.54 653.576 1298.54 653.339C1298.54 653.101 1298.74 652.911 1298.97 652.912L1313.75 652.986C1313.99 652.988 1314.18 653.179 1314.18 653.418C1314.17 653.656 1313.98 653.846 1313.74 653.845Z" fill="#BD9148"/>
<path d="M1297.2 600.819L1292.11 600.795C1291.99 600.793 1291.86 600.736 1291.78 600.637L1291.61 600.432C1291.47 600.248 1291.49 599.977 1291.68 599.827C1291.86 599.676 1292.13 599.705 1292.28 599.887L1292.32 599.936L1297.21 599.961C1297.44 599.962 1297.64 600.155 1297.63 600.392C1297.63 600.63 1297.44 600.821 1297.2 600.819Z" fill="#BD9148"/>
<path d="M1298.87 590.942L1293.39 590.914C1293.16 590.913 1292.97 590.72 1292.97 590.482C1292.97 590.245 1293.16 590.053 1293.4 590.054L1298.87 590.082C1299.11 590.083 1299.3 590.276 1299.3 590.514C1299.3 590.751 1299.1 590.943 1298.87 590.942Z" fill="#BD9148"/>
<path d="M1323.67 705.998C1323.51 705.997 1323.39 705.868 1323.39 705.709L1323.4 703.442C1323.4 703.283 1323.53 703.155 1323.69 703.155C1323.84 703.157 1323.97 703.287 1323.97 703.444L1323.96 705.712C1323.96 705.871 1323.83 705.998 1323.67 705.998Z" fill="#192B51"/>
<path d="M1291.14 534.702L1287.08 534.682L1287.09 533.139L1291.14 533.159L1291.14 534.702Z" fill="#192B51"/>
<path d="M1289.65 528.007L1288.1 528C1288.48 588.05 1287.49 668.54 1286.61 717.822L1289.23 717.834C1289.04 659.734 1288.92 580.521 1289.65 528.007Z" fill="#192B51"/>
<path d="M1283.37 716.642C1283.37 716.642 1296.81 715.097 1305.85 714.067C1314.9 713.039 1320.45 712.619 1321.07 712.802C1321.7 712.984 1323.19 718.542 1323.19 718.542L1302.6 718.797L1283.37 716.642Z" fill="#D2D2E1"/>
<path d="M1319.17 717.578C1318.95 717.742 1315.48 717.724 1315.32 717.559C1315.15 717.392 1315.11 716.015 1315.33 715.796C1315.55 715.577 1319.01 715.705 1319.18 715.816C1319.34 715.926 1319.39 717.414 1319.17 717.578Z" fill="#544E55"/>
<path d="M1311.02 717.537C1310.8 717.701 1307.34 717.683 1307.17 717.518C1307.01 717.351 1306.96 715.975 1307.18 715.756C1307.4 715.536 1310.87 715.664 1311.03 715.775C1311.2 715.886 1311.25 717.373 1311.02 717.537Z" fill="#544E55"/>
<path d="M1290.26 716.789C1263.03 715.583 1241.82 714.63 1227.27 714.085L1227.23 720.77L1341.44 721.345L1341.45 719.372C1327.33 718.565 1310.02 717.664 1290.26 716.789Z" fill="#D2D2E1"/>
<path d="M1230.31 714.202L1230.28 720.785L1232.42 720.796L1232.46 714.285C1231.73 714.256 1231.01 714.229 1230.31 714.202Z" fill="#D2D2E1"/>
<path d="M1234.72 714.377L1234.69 720.808L1236.84 720.819L1236.87 714.463C1236.14 714.433 1235.43 714.404 1234.72 714.377Z" fill="#D2D2E1"/>
<path d="M1239.14 714.556L1239.11 720.83L1241.25 720.841L1241.28 714.646C1240.56 714.616 1239.84 714.585 1239.14 714.556Z" fill="#D2D2E1"/>
<path d="M1243.55 714.741L1243.52 720.852L1245.67 720.863L1245.7 714.833C1244.97 714.801 1244.26 714.771 1243.55 714.741Z" fill="#D2D2E1"/>
<path d="M1247.97 714.928L1247.94 720.874L1250.09 720.885L1250.11 715.02C1249.38 714.989 1248.68 714.96 1247.97 714.928Z" fill="#D2D2E1"/>
<path d="M1252.38 715.119L1252.35 720.896L1254.5 720.907L1254.53 715.212C1253.8 715.18 1253.09 715.149 1252.38 715.119Z" fill="#D2D2E1"/>
<path d="M1256.8 715.31L1256.77 720.919L1258.92 720.93L1258.94 715.405C1258.22 715.373 1257.51 715.342 1256.8 715.31Z" fill="#D2D2E1"/>
<path d="M1261.21 715.503L1261.18 720.941L1263.33 720.952L1263.36 715.598C1262.64 715.566 1261.92 715.535 1261.21 715.503Z" fill="#D2D2E1"/>
<path d="M1265.63 715.698L1265.6 720.963L1267.75 720.974L1267.77 715.792C1267.05 715.761 1266.33 715.729 1265.63 715.698Z" fill="#D2D2E1"/>
<path d="M1270.04 715.894L1270.01 720.985L1272.16 720.996L1272.19 715.988C1271.47 715.957 1270.75 715.925 1270.04 715.894Z" fill="#D2D2E1"/>
<path d="M1274.45 716.088L1274.43 721.008L1276.58 721.018L1276.6 716.184C1275.88 716.151 1275.17 716.12 1274.45 716.088Z" fill="#D2D2E1"/>
<path d="M1278.87 716.284L1278.84 721.03L1280.99 721.041L1281.02 716.38C1280.29 716.347 1279.58 716.316 1278.87 716.284Z" fill="#D2D2E1"/>
<path d="M1283.28 716.48L1283.26 721.052L1285.41 721.063L1285.43 716.576C1284.71 716.543 1284 716.511 1283.28 716.48Z" fill="#D2D2E1"/>
<path d="M1287.7 716.676L1287.68 721.074L1289.82 721.085L1289.85 716.77C1289.12 716.739 1288.41 716.707 1287.7 716.676Z" fill="#D2D2E1"/>
<path d="M1292.11 716.873L1292.09 721.096L1294.24 721.107L1294.26 716.97C1293.55 716.937 1292.83 716.904 1292.11 716.873Z" fill="#D2D2E1"/>
<path d="M1296.53 717.071L1296.51 721.119L1298.65 721.13L1298.67 717.17C1297.96 717.137 1297.25 717.104 1296.53 717.071Z" fill="#D2D2E1"/>
<path d="M1300.94 717.277L1300.92 721.141L1303.07 721.152L1303.09 717.377C1302.38 717.344 1301.66 717.31 1300.94 717.277Z" fill="#D2D2E1"/>
<path d="M1305.36 717.485L1305.34 721.163L1307.49 721.174L1307.5 717.589C1306.78 717.553 1306.08 717.519 1305.36 717.485Z" fill="#D2D2E1"/>
<path d="M1309.77 717.698L1309.75 721.185L1311.9 721.196L1311.92 717.802C1311.21 717.768 1310.49 717.733 1309.77 717.698Z" fill="#D2D2E1"/>
<path d="M1314.18 717.916L1314.17 721.208L1316.32 721.217L1316.33 718.024C1315.62 717.989 1314.9 717.952 1314.18 717.916Z" fill="#D2D2E1"/>
<path d="M1318.6 718.138L1318.58 721.23L1320.73 721.241L1320.75 718.249C1320.03 718.212 1319.33 718.175 1318.6 718.138Z" fill="#D2D2E1"/>
<path d="M1323.01 718.367L1323 721.252L1325.15 721.263L1325.16 718.479C1324.45 718.442 1323.73 718.404 1323.01 718.367Z" fill="#D2D2E1"/>
<path d="M1327.43 718.6L1327.41 721.274L1329.56 721.285L1329.57 718.713C1328.87 718.676 1328.14 718.638 1327.43 718.6Z" fill="#D2D2E1"/>
<path d="M1331.84 718.837L1331.83 721.296L1333.98 721.307L1333.99 718.954C1333.28 718.916 1332.57 718.876 1331.84 718.837Z" fill="#D2D2E1"/>
<path d="M1336.26 719.079L1336.24 721.319L1338.39 721.33L1338.4 719.2C1337.69 719.159 1336.99 719.12 1336.26 719.079Z" fill="#D2D2E1"/>
<path d="M1204.17 714.78C1203.71 715.234 1226.3 728.143 1226.3 728.143C1226.3 728.143 1342.47 728.728 1353.39 728.783C1364.31 728.838 1381.25 725.163 1382.05 724.987C1382.86 724.812 1383.05 723.381 1381.88 723.017C1381.12 722.777 1345.02 720.145 1290.26 717.72C1235.49 715.295 1205.07 713.889 1204.17 714.78Z" fill="#EEEFF6"/>
<path d="M1381.88 723.017C1381.38 722.858 1365.34 721.647 1338.65 720.144C1326 723.745 1303.99 726.504 1278.22 726.376C1241.95 726.193 1210.54 720.353 1204.27 714.737L1204.17 714.78C1203.71 715.234 1226.3 728.143 1226.3 728.143C1226.3 728.143 1342.47 728.728 1353.39 728.783C1364.31 728.838 1381.25 725.163 1382.05 724.987C1382.86 724.812 1383.05 723.381 1381.88 723.017Z" fill="#C1C2CF"/>
<path d="M1283.82 717.562L1283.72 717.526L1267.41 703.177L1267.4 702.976L1267.6 702.964L1283.91 717.312L1283.92 717.514L1283.82 717.562Z" fill="#192B51"/>
<path d="M1267.99 703.073C1267.96 703.336 1267.87 703.509 1267.51 703.553C1267.24 703.584 1267.04 703.279 1267.03 703.068C1267.01 702.802 1267.24 702.617 1267.51 702.589C1267.78 702.56 1268.02 702.832 1267.99 703.073Z" fill="#192B51"/>
<path d="M1284.3 717.422C1284.26 717.686 1284.17 717.857 1283.81 717.901C1283.55 717.933 1283.35 717.627 1283.33 717.416C1283.32 717.151 1283.55 716.966 1283.82 716.937C1284.09 716.908 1284.33 717.181 1284.3 717.422Z" fill="#192B51"/>
<path d="M315.209 727.819L315.279 727.81L315.445 727.517L260.23 527.945L259.938 527.779L259.772 528.071L314.986 727.644L315.209 727.819Z" fill="#192B51"/>
<path d="M140.861 734.533L141.073 734.413L260.207 528.127L260.121 527.803L259.795 527.889L140.661 734.175L140.748 734.501L140.861 734.533Z" fill="#192B51"/>
<path d="M157.123 638.426L118.805 714.238L155.276 715.241L157.123 638.426Z" fill="#CAA871"/>
<path d="M138.046 676.17C138.357 694.632 145.48 709.284 154.64 709.536C154.899 709.542 155.157 709.533 155.414 709.517L155.276 715.241L118.805 714.238L138.046 676.17Z" fill="#BD9148"/>
<path d="M129.637 693.025L155.47 693.735C155.646 693.742 155.792 693.602 155.797 693.427C155.802 693.252 155.663 693.106 155.488 693.101L129.654 692.391C129.479 692.386 129.333 692.524 129.328 692.699C129.323 692.874 129.462 693.02 129.637 693.025Z" fill="#BD9148"/>
<path d="M140.473 671.626L156.066 672.055C156.242 672.06 156.388 671.92 156.393 671.745C156.398 671.571 156.259 671.424 156.084 671.42L140.491 670.991C140.315 670.986 140.169 671.124 140.164 671.299C140.16 671.474 140.298 671.621 140.473 671.626Z" fill="#BD9148"/>
<path d="M118.796 714.556L119.088 714.382L157.406 638.569C157.486 638.412 157.423 638.221 157.267 638.143C157.111 638.062 156.92 638.126 156.841 638.284L118.522 714.096C118.442 714.253 118.505 714.444 118.661 714.522L118.796 714.556Z" fill="#BD9148"/>
<path d="M157.05 633.242L158.445 633.279C157.031 671.524 156.147 704.686 155.634 735.56L154.24 735.523C155.497 699.146 156.378 666.786 157.05 633.242Z" fill="#192B51"/>
<path d="M115.772 715.267L115.834 713.013C130.324 713.997 143.857 714.326 155.576 714.107L155.514 716.361C141.729 715.564 128.501 715.213 115.772 715.267Z" fill="#192B51"/>
<path d="M144.768 669.294H144.773L150.459 669.362C150.635 669.364 150.778 669.223 150.78 669.049C150.782 668.874 150.605 668.717 150.467 668.727L144.781 668.658C144.605 668.656 144.462 668.797 144.46 668.973C144.458 669.146 144.596 669.289 144.768 669.294Z" fill="#BD9148"/>
<path d="M145.942 674.157L154.416 674.391C154.59 674.395 154.737 674.258 154.742 674.082C154.747 673.907 154.608 673.76 154.433 673.755L145.96 673.522C145.784 673.517 145.638 673.656 145.633 673.832C145.628 674.007 145.767 674.153 145.942 674.157Z" fill="#BD9148"/>
<path d="M135.313 690.932L145.093 691.201C145.268 691.206 145.414 691.066 145.419 690.893C145.424 690.717 145.285 690.57 145.11 690.566L135.331 690.296C135.156 690.292 135.009 690.431 135.005 690.606C135 690.78 135.138 690.927 135.313 690.932Z" fill="#BD9148"/>
<path d="M128.239 711.641L144.915 712.1C145.09 712.104 145.236 711.965 145.241 711.791C145.246 711.616 145.107 711.469 144.932 711.464L128.257 711.006C128.082 711.001 127.935 711.14 127.931 711.314C127.926 711.489 128.064 711.637 128.239 711.641Z" fill="#BD9148"/>
<path d="M155.622 634.086L159.124 634.183L159.158 632.946L155.656 632.849L155.622 634.086Z" fill="#192B51"/>
<path d="M259.584 533.553L183.264 712.175L254.621 714.138L259.584 533.553Z" fill="#EEEFF6"/>
<path d="M239.081 640.533C252.886 598.701 257.466 555.071 258.918 535.114L259.584 533.553L254.621 714.138L204.686 712.765C210.364 704.188 226.859 677.563 239.081 640.533Z" fill="#D2D2E1"/>
<path d="M243.721 571.802L258.257 572.202C258.433 572.207 258.578 572.068 258.584 571.894C258.589 571.719 258.45 571.572 258.275 571.567L243.74 571.168C243.565 571.163 243.418 571.301 243.413 571.476C243.409 571.651 243.548 571.797 243.721 571.802Z" fill="#D2D2E1"/>
<path d="M231.573 600.045L257.472 600.758C257.647 600.762 257.794 600.623 257.799 600.448C257.804 600.274 257.664 600.127 257.491 600.122L231.591 599.41C231.415 599.405 231.27 599.543 231.265 599.718C231.26 599.893 231.398 600.041 231.573 600.045Z" fill="#D2D2E1"/>
<path d="M219.556 628.291L256.688 629.313C256.863 629.317 257.009 629.178 257.013 629.003C257.018 628.829 256.88 628.682 256.705 628.677L219.573 627.655C219.398 627.65 219.251 627.79 219.246 627.965C219.242 628.14 219.381 628.286 219.556 628.291Z" fill="#D2D2E1"/>
<path d="M207.275 656.53L255.903 657.868C256.078 657.873 256.225 657.733 256.23 657.558C256.234 657.384 256.095 657.237 255.92 657.233L207.293 655.894C207.117 655.889 206.97 656.029 206.966 656.204C206.961 656.378 207.1 656.525 207.275 656.53Z" fill="#D2D2E1"/>
<path d="M195.39 684.78L255.118 686.424C255.292 686.428 255.439 686.289 255.444 686.114C255.449 685.938 255.311 685.793 255.136 685.788L195.407 684.144C195.232 684.14 195.086 684.279 195.082 684.454C195.075 684.628 195.214 684.775 195.39 684.78Z" fill="#D2D2E1"/>
<path d="M183.256 712.493L183.556 712.299L259.877 533.677C259.946 533.516 259.871 533.33 259.709 533.262C259.544 533.194 259.362 533.267 259.293 533.428L182.973 712.05C182.904 712.211 182.979 712.398 183.138 712.466L183.256 712.493Z" fill="#D2D2E1"/>
<path d="M178.762 713.701L178.832 711.166C206.343 712.582 232.024 713.24 254.253 713.24L254.183 715.775C228.014 714.586 202.91 713.911 178.762 713.701Z" fill="#192B51"/>
<path d="M259.246 524.78L260.886 524.823C258.33 602.345 256.374 674.671 255.048 737.237L253.409 737.191C255.738 663.46 257.671 592.762 259.246 524.78Z" fill="#192B51"/>
<path d="M197.13 688.796L221.974 689.48C222.149 689.485 222.295 689.346 222.3 689.171C222.304 688.997 222.167 688.85 221.991 688.845L197.149 688.161C196.974 688.156 196.826 688.295 196.822 688.471C196.817 688.645 196.956 688.792 197.13 688.796Z" fill="#D2D2E1"/>
<path d="M216.097 681.778L231.034 682.188C231.209 682.194 231.356 682.055 231.361 681.879C231.365 681.704 231.226 681.558 231.052 681.554L216.114 681.142C215.939 681.137 215.794 681.277 215.789 681.45C215.783 681.626 215.922 681.773 216.097 681.778Z" fill="#D2D2E1"/>
<path d="M210.2 659.653L217.762 659.861C217.937 659.865 218.084 659.726 218.089 659.551C218.093 659.377 217.954 659.23 217.779 659.225L210.217 659.017C210.042 659.012 209.894 659.15 209.89 659.325C209.885 659.501 210.024 659.648 210.2 659.653Z" fill="#D2D2E1"/>
<path d="M226.838 632.195L247.6 632.766C247.775 632.771 247.923 632.633 247.927 632.458C247.932 632.282 247.793 632.135 247.617 632.13L226.856 631.561C226.68 631.554 226.535 631.694 226.53 631.869C226.525 632.044 226.663 632.19 226.838 632.195Z" fill="#D2D2E1"/>
<path d="M224.928 624.867L232.075 625.063C232.251 625.067 232.396 624.93 232.402 624.754C232.407 624.579 232.268 624.433 232.093 624.427L224.945 624.232C224.772 624.227 224.624 624.365 224.62 624.54C224.615 624.715 224.753 624.862 224.928 624.867Z" fill="#D2D2E1"/>
<path d="M235.981 603.208L244.042 603.43C244.217 603.435 244.364 603.297 244.369 603.121C244.374 602.946 244.235 602.799 244.061 602.794L235.998 602.574C235.823 602.567 235.677 602.707 235.673 602.882C235.668 603.057 235.806 603.203 235.981 603.208Z" fill="#D2D2E1"/>
<path d="M247.333 575.076L255.791 575.31C255.967 575.314 256.114 575.175 256.118 575.001C256.123 574.826 255.984 574.679 255.809 574.674L247.351 574.441C247.176 574.436 247.029 574.575 247.024 574.751C247.02 574.926 247.159 575.072 247.333 575.076Z" fill="#D2D2E1"/>
<path d="M212.4 710.384L218.089 710.541C218.264 710.545 218.41 710.406 218.414 710.232C218.419 710.057 218.281 709.91 218.106 709.905L212.417 709.748C212.243 709.744 212.096 709.884 212.091 710.057C212.087 710.232 212.224 710.38 212.4 710.384Z" fill="#D2D2E1"/>
<path d="M257.358 525.587L261.85 525.711L261.894 524.124L257.4 524L257.358 525.587Z" fill="#192B51"/>
<path d="M316.16 727.523C313.481 725.747 274.342 735.188 213.033 735.684C162.357 736.094 131.501 731.06 130.339 732.417L164.386 744.666L297.033 739.582L316.16 727.523Z" fill="#D2D2E1"/>
<path d="M223.892 737.57C223.892 737.57 219.264 725.536 217.214 724.29C215.166 723.042 188.006 722.492 187.194 723.166C186.382 723.837 182.636 737.428 182.636 737.428L204.209 739.212L223.892 737.57Z" fill="#EEEFF6"/>
<path d="M187.194 723.166C187.318 723.062 188.063 722.989 189.235 722.942C191.344 726.157 198.149 731.173 207.081 733.337C212.957 734.76 218.723 735.576 223.044 735.446C223.561 736.712 223.892 737.57 223.892 737.57L204.209 739.212L182.636 737.428C182.636 737.428 186.382 723.837 187.194 723.166Z" fill="#D2D2E1"/>
<path d="M182.63 737.665L182.865 737.492C184.3 732.287 186.784 723.847 187.346 723.347C188.426 722.798 214.959 723.196 217.092 724.491L217.419 724.412L217.338 724.086C215.961 723.247 205.057 722.866 201.747 722.769C201.613 722.757 187.783 722.368 187.042 722.981C186.215 723.666 183.035 735.084 182.406 737.363L182.574 737.656L182.63 737.665Z" fill="#D2D2E1"/>
<path d="M187.382 727.085L187.615 726.921C187.778 726.419 188.271 725.041 188.574 724.695C188.765 724.574 190.155 724.513 191.324 724.537L191.566 724.302L191.334 724.059H191.333C190.061 724.036 188.49 724.072 188.218 724.381C187.794 724.862 187.226 726.578 187.161 726.772L187.315 727.073L187.382 727.085Z" fill="#D2D2E1"/>
<path d="M185.002 735.053L185.238 734.879C185.683 733.328 186.124 731.805 186.634 730.211L186.479 729.913L186.18 730.066C185.669 731.664 185.226 733.193 184.78 734.749L184.943 735.043L185.002 735.053Z" fill="#D2D2E1"/>
<path d="M206.066 726.99C205.296 727.488 205.468 733.153 205.872 734.047C206.275 734.94 218.165 734.936 218.716 734.399C219.267 733.862 217.292 727.739 216.02 727.264C214.748 726.786 206.72 726.565 206.066 726.99Z" fill="#192B51"/>
<path d="M192.499 726.657C191.735 727.149 191.482 732.742 191.882 733.627C192.283 734.511 202.497 734.464 203.043 733.933C203.589 733.403 203.649 727.4 202.703 726.938C201.491 726.343 193.149 726.238 192.499 726.657Z" fill="#192B51"/>
<path d="M206.518 727.369C205.804 727.816 205.969 732.91 206.343 733.715C206.718 734.517 217.727 734.523 218.236 734.042C218.746 733.56 216.914 728.051 215.734 727.622C214.556 727.191 207.123 726.988 206.518 727.369Z" fill="#192B51"/>
<path d="M192.841 726.992C192.129 727.439 191.896 732.523 192.27 733.326C192.645 734.131 202.166 734.095 202.677 733.613C203.185 733.131 203.237 727.675 202.356 727.254C201.223 726.713 193.446 726.612 192.841 726.992Z" fill="#192B51"/>
<path d="M215.268 728.278C215.988 728.541 217.011 731.177 217.266 732.566C215.97 732.65 214.617 732.681 213.215 732.644C211.233 732.589 209.347 732.404 207.612 732.122C207.476 730.697 207.507 728.344 207.934 728.076C208.416 727.774 214.331 727.937 215.268 728.278Z" fill="#192B51"/>
<path d="M195.089 727.45C196.981 727.336 200.994 727.456 201.708 727.797C202.176 728.021 202.312 730.022 202.232 731.448C198.396 730.528 195.7 729.077 195.089 727.45Z" fill="#192B51"/>
<path d="M263.3 537.889C263.3 537.889 264.612 594.69 249.325 647.048C237.061 689.047 218.319 716.58 218.319 716.58C218.319 716.58 263.771 727.621 314.99 721.356L263.3 537.889Z" fill="#F9F9F8"/>
<path d="M250.631 642.405C250.992 641.078 251.338 639.749 251.679 638.418C263.108 639.608 276.965 640.42 292.073 640.017L293.204 644.033C277.332 644.376 262.751 643.576 250.631 642.405Z" fill="#C9D1E5"/>
<path d="M248.223 650.721C267.462 686.207 292.709 712.452 313.858 721.483C263.105 727.448 218.319 716.58 218.319 716.58C218.319 716.58 235.972 690.644 248.223 650.721Z" fill="#EEEFF6"/>
<path d="M234.565 686.541C239.096 676.665 243.923 664.677 248.127 651.034C261.119 652.518 277.709 653.604 295.88 652.85L306.756 691.841C277.226 693.355 250.506 689.592 234.565 686.541Z" fill="#C9D1E5"/>
<path d="M276.412 691.7C259.44 690.738 244.784 688.498 234.566 686.541C240.015 674.666 244.604 662.472 248.128 651.034L248.412 651.065C256.879 666.623 266.497 680.392 276.412 691.7Z" fill="#192B51" fill-opacity="0.57"/>
<path d="M270.85 723.865C283.709 724.219 298.522 723.84 314.851 722.099C315.024 722.081 315.151 721.925 315.132 721.75C315.113 721.576 314.966 721.45 314.782 721.468C260.511 727.249 223.005 717.965 218.654 716.818C220.909 713.388 238.076 686.536 249.455 647.568C264.582 595.759 263.457 538.878 263.444 538.312C263.44 538.135 263.285 538.008 263.119 538C262.944 538.005 262.805 538.149 262.809 538.324C262.823 538.892 263.944 595.679 248.846 647.389C236.737 688.859 218.07 716.555 217.884 716.829L217.848 717.117L218.059 717.312C218.335 717.392 238.334 722.97 270.85 723.865Z" fill="#192B51"/>
<path d="M232.376 710.469L232.628 710.405L236.305 708.257C236.53 708.126 236.609 707.833 236.476 707.606C236.344 707.379 236.053 707.304 235.825 707.435L232.148 709.581C231.921 709.712 231.844 710.005 231.977 710.232C232.063 710.381 232.216 710.464 232.376 710.469Z" fill="#D2D2E1"/>
<path d="M228.006 710.575L228.364 710.428C232.034 706.568 235.915 700.25 235.955 700.186C236.091 699.962 236.02 699.668 235.797 699.532C235.573 699.391 235.28 699.464 235.143 699.688C235.103 699.751 231.273 705.986 227.674 709.771C227.493 709.962 227.501 710.264 227.692 710.444L228.006 710.575Z" fill="#D2D2E1"/>
<path d="M244.515 716.189C244.776 716.197 244.995 715.99 245.003 715.725C245.009 715.462 244.803 715.245 244.54 715.237C244.491 715.236 239.559 715.082 233.424 713.512C233.168 713.448 232.911 713.6 232.845 713.855C232.78 714.112 232.933 714.37 233.188 714.436C239.433 716.034 244.465 716.188 244.515 716.189Z" fill="#D2D2E1"/>
<path d="M257.419 633.65C257.638 633.656 257.841 633.508 257.895 633.284C259.894 624.903 261.439 616.309 262.481 607.742C262.512 607.481 262.326 607.244 262.064 607.211C261.814 607.191 261.567 607.365 261.536 607.626C260.498 616.157 258.96 624.717 256.968 633.063C256.907 633.32 257.065 633.577 257.32 633.638L257.419 633.65Z" fill="#192B51"/>
<path d="M264.635 612.509C264.891 612.516 265.106 612.322 265.124 612.066L265.92 600.175C265.937 599.914 265.739 599.687 265.477 599.668C265.216 599.646 264.988 599.848 264.97 600.112L264.174 612.001C264.157 612.263 264.354 612.49 264.617 612.509H264.635Z" fill="#192B51"/>
<path d="M300.93 684.401L301.067 684.384C301.321 684.317 301.471 684.057 301.404 683.802L295.308 661.143C295.239 660.889 294.982 660.736 294.724 660.806C294.471 660.874 294.32 661.135 294.388 661.39L300.484 684.049C300.54 684.257 300.725 684.395 300.93 684.401Z" fill="#192B51" fill-opacity="0.57"/>
<path d="M134.942 733.416L135.204 733.345C135.429 733.206 135.497 732.912 135.358 732.689C132.259 727.699 130.057 722.94 130.549 722.3C131.123 722.112 136.036 722.533 142.261 723.067C158.478 724.454 188.66 727.034 219.683 725.826C248.037 724.716 281.621 719.645 301.689 716.618C311.967 715.065 320.843 713.725 321.757 714.072C322.269 714.988 317.95 722.167 313.611 728.262C313.46 728.477 313.51 728.773 313.723 728.926C313.942 729.078 314.236 729.03 314.388 728.815C318.047 723.671 323.949 714.821 322.335 713.328C321.67 712.708 317.805 713.221 301.546 715.676C281.499 718.701 247.948 723.765 219.647 724.872C188.679 726.085 158.538 723.504 142.342 722.117C132.894 721.309 130.625 721.154 130.057 721.486C129.899 721.58 129.692 721.766 129.604 722.129C129.083 724.239 133.632 731.716 134.549 733.192C134.636 733.334 134.786 733.413 134.942 733.416Z" fill="#F9F9F8"/>
<path d="M188.142 732.057C197.965 732.326 208.117 732.347 217.734 731.922C256.042 730.229 317.815 721.677 318.433 721.589C318.695 721.553 318.876 721.314 318.84 721.052C318.803 720.792 318.555 720.608 318.304 720.647C317.684 720.733 255.954 729.278 217.691 730.972C179.441 732.661 132.644 727.286 132.177 727.231C131.915 727.199 131.679 727.387 131.649 727.649C131.619 727.909 131.806 728.145 132.067 728.177C132.418 728.217 158.811 731.249 188.142 732.057Z" fill="#F9F9F8"/>
<path d="M275.926 735.31C276.14 735.316 276.337 735.177 276.397 734.962L280.584 719.797C280.653 719.542 280.504 719.279 280.251 719.21C279.993 719.141 279.734 719.29 279.666 719.542L275.48 734.707C275.41 734.961 275.558 735.224 275.812 735.292L275.926 735.31Z" fill="#F9F9F8"/>
<path d="M232.403 738.28C232.655 738.287 232.872 738.094 232.889 737.84L233.839 724.966C233.858 724.705 233.661 724.476 233.399 724.457C233.129 724.446 232.908 724.635 232.889 724.897L231.941 737.77C231.921 738.032 232.118 738.26 232.381 738.279L232.403 738.28Z" fill="#F9F9F8"/>
<path d="M174.302 737.476L174.368 737.473C174.63 737.444 174.818 737.21 174.789 736.948L173.52 725.402C173.491 725.141 173.261 724.948 172.995 724.983C172.733 725.011 172.545 725.246 172.573 725.507L173.843 737.052C173.87 737.292 174.069 737.469 174.302 737.476Z" fill="#F9F9F8"/>
<path d="M316.144 727.473C317.06 728.121 300.821 746.103 290.618 751.643L147.111 747.696C147.111 747.696 128.931 734.083 130.339 732.417C130.897 731.758 139.518 733.231 155.622 734.705C171.096 736.122 193.478 737.537 222.252 737.061C282.319 736.069 314.587 726.371 316.144 727.473Z" fill="#CAA871"/>
<path d="M130.339 732.417C130.828 731.839 137.537 732.902 150.039 734.167C165.242 742.009 194.371 748.639 228.018 748.598C270.648 748.548 306.619 737.813 316.16 727.523C316.586 728.644 300.676 746.182 290.618 751.643L147.111 747.696C147.111 747.696 128.931 734.083 130.339 732.417Z" fill="#BD9148"/>
<path d="M192.77 736.755L192.916 736.711L223.936 714.675L223.994 714.343L223.66 714.287L192.639 736.321L192.584 736.653L192.77 736.755Z" fill="#192B51"/>
<path d="M191.392 736.477C191.466 737.241 191.704 737.745 192.741 737.905C193.5 738.021 194.107 737.16 194.168 736.554C194.243 735.791 193.597 735.235 192.818 735.127C192.04 735.018 191.323 735.781 191.392 736.477Z" fill="#544E55"/>
<path d="M222.813 714.321C222.888 715.085 223.126 715.59 224.163 715.749C224.922 715.865 225.529 715.004 225.59 714.399C225.665 713.634 225.018 713.08 224.24 712.971C223.461 712.862 222.746 713.625 222.813 714.321Z" fill="#192B51"/>
<path d="M133.659 736.748C144.986 737.918 175.188 742.034 222.122 741.292C270.632 740.526 301.291 734.268 312.664 732.273C311.898 733.143 311.026 734.1 310.081 735.103C297.082 737.454 267.353 742.956 222.058 743.672C178.942 744.353 149.963 740.937 136.751 739.47C135.646 738.534 134.588 737.609 133.659 736.748Z" fill="#EEEFF6"/>
<path d="M175.05 742.792C157.249 741.811 144.372 740.317 136.751 739.47L136.75 739.469C136.202 739.006 135.667 738.545 135.153 738.093L135.133 738.076C134.616 737.622 134.121 737.177 133.659 736.748C139.218 737.321 149.332 738.605 163.729 739.675C167.205 740.793 171.008 741.832 175.05 742.792Z" fill="#C9D1E5"/>
<path d="M308.657 732.993C310.181 732.717 311.522 732.473 312.662 732.273L312.558 732.392C312.23 732.765 311.884 733.15 311.521 733.549L311.327 733.76C310.928 734.197 310.515 734.643 310.081 735.103C307.528 735.565 304.32 736.149 300.487 736.793C303.564 735.568 306.298 734.294 308.657 732.993Z" fill="#C9D1E5"/>
<path d="M289.236 749.222L289.393 749.186C293.419 747.078 297.096 744.129 300.026 740.655L299.989 740.208L299.541 740.245C296.664 743.656 293.053 746.554 289.097 748.623C288.942 748.705 288.883 748.895 288.964 749.052L289.236 749.222Z" fill="#BD9148"/>
<path d="M148.287 745.921L148.564 745.774C148.658 745.627 148.614 745.43 148.465 745.336C146.557 744.126 144.063 741.905 144.037 741.884L143.589 741.91L143.615 742.355C143.718 742.448 146.174 744.635 148.126 745.872L148.287 745.921Z" fill="#BD9148"/>
<path d="M242.694 739.079H242.737C263.189 738.265 280.816 735.585 280.992 735.559C281.338 735.505 281.576 735.179 281.523 734.835C281.47 734.488 281.147 734.257 280.798 734.303C280.625 734.33 263.064 737 242.687 737.809C242.337 737.825 242.065 738.12 242.079 738.47C242.091 738.805 242.363 739.071 242.694 739.079Z" fill="white"/>
<path d="M226.612 739.669H226.631C231.031 739.66 235.955 739.333 236.003 739.33C236.354 739.306 236.618 739.004 236.595 738.653C236.571 738.302 236.267 738.038 235.919 738.061C235.87 738.066 230.985 738.39 226.627 738.401C226.277 738.4 225.994 738.686 225.994 739.035C225.995 739.38 226.269 739.66 226.612 739.669Z" fill="white"/>
<path d="M945.714 562.747C945.714 562.747 965.525 564.077 968.419 566.025C971.315 567.973 979.044 582.841 980.144 584.854C981.245 586.869 1024.66 686.196 1040.16 738.27L952.614 758.675L945.714 562.747Z" fill="#F9F9F8"/>
<path d="M980.144 584.854C979.044 582.841 971.315 567.973 968.419 566.025C967.445 565.369 964.539 564.785 961.129 564.296C975.229 580.761 986.968 609.285 991.758 642.751C999.646 697.886 997.186 742.152 960.591 749.09C957.832 749.613 955.051 749.52 952.271 748.924L952.614 758.675L1040.16 738.27C1024.66 686.196 981.245 586.869 980.144 584.854Z" fill="#DDDEE8"/>
<path d="M1040.19 738.886C1039.91 738.896 1039.66 738.72 1039.57 738.446C1024.01 686.164 980.91 587.538 979.604 585.15L979.066 584.143C973.412 573.563 969.715 567.639 968.076 566.537C965.815 565.014 951.137 563.728 945.672 563.361C945.333 563.338 945.077 563.044 945.098 562.705C945.121 562.365 945.411 562.101 945.754 562.132C947.799 562.269 965.818 563.529 968.763 565.514C971.205 567.158 976.432 576.602 980.15 583.564L980.686 584.559C981.993 586.953 1025.17 685.746 1040.75 738.094C1040.85 738.419 1040.67 738.762 1040.34 738.86L1040.19 738.886Z" fill="#D2D2E1"/>
<path d="M946.727 590.544C946.419 590.556 946.145 590.334 946.097 590.021C946.047 589.685 946.278 589.371 946.614 589.32L980.052 584.246C980.382 584.2 980.703 584.425 980.752 584.762C980.804 585.098 980.573 585.412 980.237 585.463L946.798 590.538L946.727 590.544Z" fill="#192B51" fill-opacity="0.57"/>
<path d="M947.811 625.491C947.516 625.502 947.247 625.297 947.186 624.997C947.119 624.662 947.336 624.339 947.669 624.271L993.302 615.177C993.627 615.112 993.961 615.328 994.028 615.661C994.094 615.994 993.877 616.319 993.544 616.386L947.911 625.481L947.811 625.491Z" fill="#192B51" fill-opacity="0.57"/>
<path d="M948.896 660.439C948.604 660.449 948.337 660.249 948.273 659.954C948.201 659.621 948.412 659.293 948.744 659.221L1006.42 646.711C1006.75 646.643 1007.08 646.851 1007.16 647.184C1007.23 647.515 1007.02 647.844 1006.68 647.917L949.005 660.424L948.896 660.439Z" fill="#192B51" fill-opacity="0.57"/>
<path d="M949.98 695.385C949.691 695.396 949.426 695.199 949.358 694.906C949.283 694.574 949.491 694.245 949.823 694.169L1018.87 678.441C1019.19 678.367 1019.53 678.574 1019.61 678.906C1019.68 679.236 1019.47 679.566 1019.14 679.642L950.095 695.371L949.98 695.385Z" fill="#192B51" fill-opacity="0.57"/>
<path d="M951.065 730.332C950.777 730.344 950.513 730.148 950.444 729.857C950.367 729.525 950.573 729.194 950.903 729.117L1030.98 710.353C1031.31 710.273 1031.65 710.482 1031.72 710.812C1031.8 711.144 1031.59 711.476 1031.26 711.552L951.184 730.316L951.065 730.332Z" fill="#192B51" fill-opacity="0.57"/>
<path d="M1036.21 725.752L952.145 745.346L952.614 758.675L1040.16 738.27C1039 734.346 1037.67 730.15 1036.21 725.752Z" fill="#CAA871"/>
<path d="M1038.35 732.359L1038.23 731.973C1037.59 729.951 1036.92 727.88 1036.21 725.756L1036.21 725.753L980.68 738.694C975.588 743.909 969 747.496 960.591 749.09C957.832 749.613 955.051 749.52 952.271 748.924L952.614 758.675L1040.16 738.27C1039.6 736.362 1038.99 734.385 1038.35 732.359Z" fill="#BD9148"/>
<path d="M970.729 575.981C970.475 575.99 970.232 575.84 970.134 575.591C968.893 572.447 965.667 570.201 962.289 570.13C961.949 570.123 961.678 569.841 961.687 569.502C961.693 569.161 961.991 568.885 962.314 568.899C966.175 568.98 969.862 571.546 971.279 575.138C971.404 575.455 971.249 575.813 970.933 575.938L970.729 575.981Z" fill="#D2D2E1"/>
<path d="M959.248 617.977C958.953 617.987 958.685 617.785 958.624 617.485C958.556 617.152 958.77 616.827 959.103 616.759L979.21 612.644C979.539 612.579 979.867 612.789 979.936 613.123C980.005 613.457 979.789 613.781 979.456 613.851L959.351 617.966L959.248 617.977Z" fill="#D2D2E1"/>
<path d="M979.695 623.682C979.396 623.693 979.123 623.483 979.068 623.177C979.008 622.843 979.229 622.521 979.564 622.462L987.368 621.044C987.705 620.992 988.024 621.205 988.083 621.539C988.145 621.874 987.922 622.195 987.588 622.255L979.784 623.673L979.695 623.682Z" fill="#D2D2E1"/>
<path d="M974.497 659.174C974.203 659.185 973.936 658.98 973.873 658.682C973.805 658.349 974.018 658.024 974.353 657.955L994.726 653.75C995.053 653.686 995.386 653.895 995.454 654.229C995.522 654.562 995.308 654.887 994.975 654.956L974.6 659.161L974.497 659.174Z" fill="#D2D2E1"/>
<path d="M960.133 688.004C959.846 688.014 959.581 687.82 959.512 687.529C959.435 687.199 959.639 686.867 959.971 686.789L977.924 682.558C978.249 682.479 978.586 682.684 978.664 683.015C978.742 683.347 978.537 683.679 978.207 683.757L960.253 687.988L960.133 688.004Z" fill="#D2D2E1"/>
<path d="M978.821 694.075C978.518 694.085 978.244 693.87 978.192 693.563C978.136 693.227 978.36 692.91 978.696 692.852C990.049 690.914 1001.46 688.452 1012.61 685.533C1012.93 685.449 1013.27 685.643 1013.36 685.973C1013.45 686.303 1013.25 686.639 1012.92 686.726C1001.74 689.651 990.291 692.121 978.903 694.066L978.821 694.075Z" fill="#D2D2E1"/>
<path d="M1004.5 713.033C1004.22 713.043 1003.95 712.855 1003.88 712.569C1003.8 712.239 1003.99 711.904 1004.33 711.82L1019.92 707.837C1020.26 707.749 1020.59 707.951 1020.67 708.28C1020.76 708.61 1020.56 708.946 1020.23 709.029L1004.63 713.012L1004.5 713.033Z" fill="#D2D2E1"/>
<path d="M962.8 732.779C962.516 732.789 962.254 732.601 962.182 732.314C962.099 731.984 962.299 731.649 962.629 731.566L991.449 724.327C991.774 724.241 992.114 724.443 992.196 724.774C992.28 725.105 992.079 725.438 991.75 725.522L962.929 732.76L962.8 732.779Z" fill="#D2D2E1"/>
<path d="M953.102 757.116C958.2 756.431 982.611 750.31 1000.42 746.485C1018.24 742.659 1043.88 736.056 1044.85 736.429C1045.76 736.781 1046.33 738.56 1045.51 739.358C1044.68 740.159 1020.22 745.466 1001.31 749.79C979.43 754.794 954.119 760.978 954.119 760.978L953.102 757.116Z" fill="#192B51" fill-opacity="0.57"/>
<path d="M849.712 794.382L849.438 794.329C849.128 794.19 848.988 793.826 849.125 793.516L944.962 578.423C945.104 578.113 945.466 577.978 945.774 578.111C946.086 578.251 946.226 578.614 946.087 578.924L850.252 794.017C850.152 794.239 849.939 794.374 849.712 794.382Z" fill="#192B51"/>
<path d="M843.548 794.299L843.418 794.275C843.261 794.209 843.187 794.029 843.253 793.872L943.016 556.296C943.08 556.139 943.256 556.064 943.419 556.131C943.575 556.197 943.649 556.378 943.584 556.535L843.82 794.11L843.548 794.299Z" fill="#192B51"/>
<path d="M941.18 586.194L852.136 785.802C852.136 785.802 892.185 786.049 946.969 758.71C946.969 758.71 939.522 714.132 938.111 675.495C936.699 636.859 941.18 586.194 941.18 586.194Z" fill="#F9F9F8"/>
<path d="M920.577 654.567C915.225 653.191 903.654 678.467 891.984 705.599C880.313 732.731 867.579 758.875 876.311 763.692C885.041 768.508 906.67 751.625 917.179 720.769C926.607 693.081 929.906 656.964 920.577 654.567Z" fill="white"/>
<path d="M941.18 586.194L933.365 603.712C931.879 623.035 930.339 650.079 931.138 671.983C932.549 710.621 939.996 755.199 939.996 755.199C900.472 774.923 868.624 780.287 853.945 781.746L852.136 785.802C852.136 785.802 892.185 786.049 946.969 758.71C946.969 758.71 939.522 714.132 938.111 675.495C936.699 636.859 941.18 586.194 941.18 586.194Z" fill="#EEEFF6"/>
<path d="M944.89 755.704C944.803 756.694 944.5 757.349 943.161 757.567C942.181 757.725 941.385 756.62 941.301 755.836C941.193 754.85 942.023 754.124 943.029 753.975C944.034 753.826 944.969 754.804 944.89 755.704Z" fill="#192B51"/>
<path d="M863.727 760.264C863.586 760.27 863.454 760.176 863.418 760.032C863.376 759.868 863.477 759.701 863.642 759.659C864.123 759.538 912.029 747.44 942.576 730.351C942.722 730.27 942.912 730.322 942.995 730.47C943.077 730.617 943.025 730.805 942.876 730.888C912.256 748.019 864.272 760.135 863.791 760.257L863.727 760.264Z" fill="#DDDEE8"/>
<path d="M877.279 729.9C877.142 729.905 877.013 729.818 876.972 729.68C876.925 729.517 877.017 729.346 877.181 729.297C895.11 723.992 920.558 715.439 939.973 704.824C940.12 704.743 940.309 704.797 940.391 704.947C940.472 705.096 940.417 705.283 940.268 705.366C920.806 716.005 895.313 724.573 877.355 729.889L877.279 729.9Z" fill="#DDDEE8"/>
<path d="M891.427 697.977C891.293 697.983 891.169 697.902 891.124 697.77C891.069 697.609 891.153 697.434 891.315 697.379C910.288 690.843 926.027 684.584 938.093 678.774C938.245 678.699 938.429 678.765 938.503 678.919C938.577 679.072 938.513 679.256 938.36 679.329C926.273 685.149 910.511 691.418 891.515 697.961L891.427 697.977Z" fill="#DDDEE8"/>
<path d="M906.281 664.782L905.981 664.582C905.922 664.423 906.003 664.246 906.162 664.185C918.476 659.603 929.115 655.477 937.789 651.92C937.95 651.852 938.127 651.932 938.19 652.088C938.256 652.245 938.18 652.426 938.024 652.49C929.344 656.047 918.696 660.177 906.378 664.763L906.281 664.782Z" fill="#DDDEE8"/>
<path d="M920.965 631.892L920.665 631.691C920.606 631.53 920.688 631.354 920.848 631.295C926.843 629.086 932.778 626.908 938.39 624.862C938.557 624.806 938.728 624.887 938.785 625.046C938.845 625.207 938.761 625.382 938.602 625.44C932.99 627.485 927.055 629.664 921.061 631.873L920.965 631.892Z" fill="#DDDEE8"/>
<path d="M932.311 750.597L931.994 750.523C926.077 747.285 920.694 743.188 915.993 738.345C915.757 738.102 915.761 737.711 916.006 737.475C916.249 737.236 916.637 737.243 916.876 737.486C921.492 742.24 926.777 746.263 932.584 749.441C932.883 749.605 932.993 749.98 932.829 750.277C932.72 750.475 932.521 750.59 932.311 750.597Z" fill="#D2D2E1"/>
<path d="M937.377 749.063C937.229 749.069 937.077 749.021 936.955 748.918C934.307 746.666 931.988 744.055 930.062 741.162C929.872 740.88 929.949 740.498 930.232 740.309C930.52 740.12 930.899 740.199 931.086 740.48C932.948 743.277 935.192 745.8 937.753 747.979C938.012 748.2 938.043 748.588 937.823 748.847C937.707 748.984 937.543 749.057 937.377 749.063Z" fill="#D2D2E1"/>
<path d="M916.993 761.027C916.709 761.038 916.449 760.849 916.375 760.562C916.291 760.234 916.491 759.898 916.819 759.814L932.351 755.858C932.684 755.779 933.015 755.975 933.101 756.304C933.183 756.634 932.984 756.969 932.655 757.053L917.123 761.009L916.993 761.027Z" fill="#D2D2E1"/>
<path d="M930.918 668.535C930.608 668.546 930.333 668.322 930.288 668.006C929.519 662.578 929.613 643.917 930.434 638.643C930.488 638.307 930.797 638.071 931.138 638.13C931.474 638.183 931.704 638.498 931.65 638.834C930.839 644.042 930.747 662.471 931.507 667.834C931.553 668.171 931.319 668.482 930.983 668.53L930.918 668.535Z" fill="#D2D2E1"/>
<path d="M853.571 786.385C852.664 786.417 852.175 786.418 852.133 786.418C851.793 786.415 851.519 786.139 851.52 785.799C851.522 785.458 851.732 785.17 852.14 785.186C852.541 785.193 892.491 785.111 946.289 758.363C945.507 753.571 938.817 711.69 937.496 675.518C936.1 637.285 940.522 586.646 940.567 586.141C940.595 585.802 940.91 585.561 941.234 585.58C941.573 585.611 941.823 585.91 941.793 586.248C941.748 586.755 937.332 637.318 938.726 675.473C940.119 713.628 947.502 758.164 947.576 758.609C947.621 758.877 947.486 759.14 947.244 759.26C898.695 783.49 861.234 786.104 853.571 786.385Z" fill="#D2D2E1"/>
<path d="M946.576 551.246L942.816 551.382C946.736 631.846 949.406 706.939 950.874 771.92L954.634 771.783C951.142 695.247 948.483 621.845 946.576 551.246Z" fill="#192B51" fill-opacity="0.57"/>
<path d="M1051.9 787.708C1051.44 787.724 1051.06 787.37 1051.05 786.917L1050.41 769.651C1050.4 769.198 1050.75 768.816 1051.2 768.8C1051.66 768.783 1052.04 769.138 1052.05 769.59L1052.69 786.858C1052.7 787.31 1052.35 787.69 1051.9 787.708Z" fill="#192B51"/>
<path d="M930.499 790.298C930.499 790.298 929.601 775.095 930.589 774.032C931.576 772.969 957.149 765.699 990.105 763.81C1023.06 761.92 1055.33 764.506 1057.24 765.292C1059.15 766.079 1058.59 769.693 1058.59 769.693L1034.67 770.567L1043.46 786.339L958.807 792.344L930.499 790.298Z" fill="#EEEFF6"/>
<path d="M1058.6 770.001L1058.56 770C1058.39 769.98 1058.27 769.83 1058.29 769.661C1058.29 769.627 1058.63 766.338 1057.1 765.567C1055.53 764.778 1023.85 762.191 990.122 764.117C957.625 765.981 931.944 773.162 930.812 774.244L930.378 774.245L930.363 773.822C931.387 772.721 956.878 765.406 990.088 763.502C1022.56 761.646 1055.44 764.04 1057.37 765.018C1059.29 765.98 1058.92 769.574 1058.9 769.726C1058.88 769.881 1058.76 769.995 1058.6 770.001Z" fill="#DDDEE8"/>
<path d="M930.499 790.298L958.807 792.344L1043.46 786.339L1034.67 770.567L930.43 774.38C929.707 776.892 930.499 790.298 930.499 790.298Z" fill="#D2D2E1"/>
<path d="M998.341 773.78C996.976 772.94 951.144 774.649 930.198 776.224C929.933 780.693 930.499 790.298 930.499 790.298L958.806 792.344L1005.51 789.03C1003.4 783.831 999.475 774.477 998.341 773.78Z" fill="#192B51"/>
<path d="M960.336 787.08C979.154 785.151 994.038 779.955 993.612 775.469L993.531 775.394C992.302 774.636 950.998 776.177 932.119 777.595C931.985 779.886 932.091 783.666 932.206 786.507C938.603 787.941 948.866 788.257 960.336 787.08Z" fill="#192B51"/>
<path d="M947.099 790.376L944.366 790.476C944.445 786.016 944.218 780.614 943.785 774.577L946.518 774.477C946.532 780.587 946.694 786.026 947.099 790.376Z" fill="#D2D2E1"/>
<path d="M965.322 773.96L962.589 774.059C962.99 778.407 963.153 783.694 963.156 789.617L965.891 789.517C965.463 783.553 965.232 778.234 965.322 773.96Z" fill="#D2D2E1"/>
<path d="M984.695 789.001L981.96 789.101C982.039 784.641 981.814 779.24 981.379 773.202L984.113 773.102C984.127 779.212 984.289 784.65 984.695 789.001Z" fill="#D2D2E1"/>
<path d="M1003.98 768.917L960.576 770.504C960.123 770.521 959.742 770.166 959.726 769.714C959.709 769.261 960.064 768.88 960.515 768.864L1003.92 767.276C1004.37 767.259 1004.76 767.614 1004.77 768.066C1004.79 768.519 1004.43 768.9 1003.98 768.917Z" fill="white"/>
<path d="M1021.75 768.267L1009.96 768.699C1009.51 768.715 1009.13 768.36 1009.11 767.908C1009.09 767.454 1009.45 767.074 1009.9 767.057L1021.69 766.626C1022.15 766.61 1022.53 766.963 1022.54 767.417C1022.56 767.869 1022.21 768.25 1021.75 768.267Z" fill="white"/>
<path d="M847.903 794.062C847.563 794.075 847.278 793.81 847.265 793.469L846.877 782.827C846.864 782.489 847.13 782.203 847.469 782.19C847.808 782.177 848.094 782.444 848.106 782.783L848.496 793.425C848.507 793.765 848.242 794.051 847.903 794.062Z" fill="#F9F9F8"/>
<path d="M869.819 793.261C869.48 793.273 869.195 793.008 869.182 792.669L868.793 782.026C868.78 781.686 869.045 781.4 869.386 781.389C869.724 781.376 870.01 781.641 870.023 781.982L870.411 792.624C870.424 792.962 870.159 793.248 869.819 793.261Z" fill="#F9F9F8"/>
<path d="M891.735 792.46C891.395 792.472 891.11 792.207 891.098 791.868L890.709 781.226C890.697 780.885 890.962 780.6 891.301 780.587C891.641 780.575 891.926 780.841 891.938 781.179L892.327 791.823C892.339 792.162 892.074 792.447 891.735 792.46Z" fill="#F9F9F8"/>
<path d="M913.65 791.658C913.311 791.671 913.026 791.406 913.013 791.065L912.625 780.424C912.612 780.084 912.877 779.799 913.217 779.786C913.556 779.775 913.841 780.039 913.854 780.378L914.244 791.021C914.255 791.361 913.99 791.646 913.65 791.658Z" fill="#F9F9F8"/>
<path d="M935.567 790.856C935.228 790.869 934.943 790.603 934.93 790.264L934.54 779.622C934.529 779.283 934.793 778.996 935.134 778.984C935.473 778.971 935.758 779.238 935.771 779.577L936.159 790.219C936.172 790.558 935.907 790.845 935.567 790.856Z" fill="#F9F9F8"/>
<path d="M957.483 790.056C957.143 790.067 956.858 789.802 956.846 789.463L956.457 778.821C956.445 778.481 956.71 778.195 957.049 778.184C957.389 778.171 957.674 778.435 957.686 778.776L958.076 789.418C958.087 789.757 957.822 790.042 957.483 790.056Z" fill="#F9F9F8"/>
<path d="M979.399 789.255C979.06 789.266 978.775 789.001 978.762 788.661L978.374 778.019C978.36 777.68 978.625 777.395 978.966 777.382C979.304 777.37 979.59 777.635 979.603 777.974L979.991 788.616C980.004 788.956 979.739 789.242 979.399 789.255Z" fill="#F9F9F8"/>
<path d="M1001.32 788.452C1000.98 788.465 1000.69 788.2 1000.68 787.86L1000.29 777.218C1000.28 776.879 1000.54 776.593 1000.88 776.58C1001.22 776.567 1001.51 776.834 1001.52 777.173L1001.91 787.815C1001.92 788.155 1001.65 788.441 1001.32 788.452Z" fill="#F9F9F8"/>
<path d="M1023.23 787.651C1022.89 787.664 1022.61 787.398 1022.59 787.059L1022.21 776.417C1022.19 776.076 1022.46 775.791 1022.8 775.779C1023.14 775.766 1023.42 776.031 1023.43 776.372L1023.82 787.014C1023.84 787.353 1023.57 787.638 1023.23 787.651Z" fill="#F9F9F8"/>
<path d="M1045.15 786.85C1044.81 786.862 1044.52 786.596 1044.51 786.257L1044.12 775.615C1044.11 775.275 1044.37 774.99 1044.71 774.977C1045.05 774.965 1045.34 775.23 1045.35 775.571L1045.74 786.213C1045.75 786.552 1045.49 786.837 1045.15 786.85Z" fill="#F9F9F8"/>
<path d="M1067.06 786.048C1066.72 786.061 1066.44 785.796 1066.43 785.455L1066.04 774.813C1066.03 774.474 1066.29 774.188 1066.63 774.175C1066.97 774.164 1067.25 774.429 1067.27 774.768L1067.66 785.41C1067.67 785.75 1067.4 786.036 1067.06 786.048Z" fill="#F9F9F8"/>
<path d="M1068.2 775.094L846.735 783.193C846.396 783.204 846.111 782.939 846.098 782.599C846.086 782.26 846.351 781.974 846.69 781.961L1068.16 773.863C1068.5 773.851 1068.78 774.116 1068.79 774.455C1068.81 774.796 1068.54 775.081 1068.2 775.094Z" fill="#F9F9F8"/>
<path d="M948.695 553.051L942.886 553.264L942.811 551.212L948.621 551L948.695 553.051Z" fill="#192B51" fill-opacity="0.57"/>
<path d="M840.955 793.573C841.583 792.798 897.518 791.504 953.91 789.442C1010.3 787.38 1043.97 786.149 1052.68 785.83C1061.4 785.512 1071.82 784.63 1079.43 787.419C1087.93 790.532 1095.37 806.865 1094.92 808.593C1094.47 810.321 1088.11 814.15 1074.95 814.631C1061.79 815.112 857.927 822.568 853.998 822.711C851.435 822.805 839.808 794.984 840.955 793.573Z" fill="#EEEFF6"/>
<path d="M1079.43 787.419C1073.75 785.338 1066.51 785.302 1059.58 785.548C1059.75 785.722 1059.87 785.898 1059.88 786.081C1060.05 790.802 1045.41 811.602 934.847 815.646C894.531 817.119 869.335 816.33 847.663 812.238C850.295 817.951 852.93 822.75 853.998 822.711C857.927 822.568 1061.79 815.112 1074.95 814.631C1088.11 814.15 1094.47 810.321 1094.92 808.593C1095.37 806.865 1087.93 790.532 1079.43 787.419Z" fill="#D2D2E1"/>
<path d="M1075.3 793.835L858.707 801.757C858.367 801.769 858.082 801.503 858.07 801.163C858.057 800.824 858.322 800.538 858.662 800.525L1075.26 792.605C1075.6 792.594 1075.88 792.858 1075.9 793.197C1075.91 793.538 1075.64 793.823 1075.3 793.835Z" fill="#D2D2E1"/>
<path d="M901.054 801.647C900.556 802.049 892.481 802.345 892.083 801.974C891.685 801.603 891.438 798.402 891.932 797.87C892.427 797.339 900.511 797.301 900.905 797.543C901.299 797.785 901.553 801.242 901.054 801.647Z" fill="#544E55"/>
<path d="M937.196 800.324C936.698 800.729 928.623 801.022 928.225 800.653C927.827 800.282 927.58 797.081 928.076 796.55C928.569 796.018 936.653 795.979 937.047 796.222C937.44 796.464 937.695 799.922 937.196 800.324Z" fill="#544E55"/>
<path d="M973.339 799.003C972.84 799.406 964.766 799.702 964.367 799.33C963.969 798.96 963.724 795.76 964.218 795.228C964.711 794.697 972.795 794.658 973.189 794.9C973.582 795.142 973.837 798.599 973.339 799.003Z" fill="#544E55"/>
<path d="M1063.82 795.693C1063.32 796.097 1055.25 796.393 1054.85 796.022C1054.45 795.652 1054.21 792.45 1054.7 791.919C1055.2 791.387 1063.28 791.348 1063.67 791.591C1064.07 791.833 1064.32 795.29 1063.82 795.693Z" fill="#544E55"/>
<path d="M853.997 822.711C857.927 822.568 1061.79 815.112 1074.95 814.631C1088.11 814.15 1094.47 810.321 1094.92 808.593C1095.03 808.172 1094.67 806.874 1093.94 805.12L848.533 814.095C850.858 818.954 853.049 822.746 853.997 822.711Z" fill="#192B51"/>
<path d="M847.089 810.981L1092.49 802.007C1092.21 801.461 1091.91 800.899 1091.59 800.328L846.342 809.296C846.59 809.861 846.839 810.423 847.089 810.981Z" fill="#CAA871"/>
<path d="M1035.15 802.391C1033.12 803.049 1030.92 803.701 1028.56 804.344L1092.49 802.007C1092.21 801.466 1091.91 800.908 1091.59 800.342L1091.59 800.329L1035.15 802.391Z" fill="#BD9148"/>
<path d="M1094.75 807.396L1094.75 807.357C1094.58 806.76 1094.3 805.998 1093.94 805.12L1011.97 808.119C993.751 811.575 968.838 814.402 934.847 815.647C900.264 816.911 876.82 816.501 857.17 813.779L848.536 814.095C849.325 815.747 852.088 821.426 853.55 822.517C853.718 822.641 853.87 822.715 853.997 822.711C857.927 822.568 1061.79 815.112 1074.95 814.631C1088.11 814.151 1094.47 810.322 1094.92 808.593C1094.95 808.488 1094.95 808.324 1094.92 808.116C1094.89 807.918 1094.83 807.674 1094.75 807.396Z" fill="#192B51"/>
<path d="M840.977 794.187C840.834 794.193 840.687 794.148 840.567 794.051C840.302 793.836 840.263 793.448 840.477 793.184C840.957 792.594 844.857 792.366 892.558 790.866C911.215 790.279 932.36 789.614 953.888 788.827L1059.56 784.963C1059.9 784.95 1060.18 785.216 1060.2 785.555C1060.21 785.894 1059.94 786.181 1059.6 786.192L953.933 790.057C932.402 790.843 911.254 791.51 892.595 792.097C864.893 792.972 842.962 793.66 841.258 794.108L840.977 794.187Z" fill="white"/>
<path d="M993.594 788.894C993.45 788.898 993.318 788.803 993.284 788.657L943.579 580.518C943.539 580.352 943.642 580.186 943.807 580.147C943.97 580.109 944.138 580.21 944.177 580.376L993.882 788.515C993.922 788.68 993.819 788.846 993.654 788.885L993.594 788.894Z" fill="#192B51"/>
<path d="M993.594 788.894L993.415 788.844L942.929 756.029C942.787 755.936 942.747 755.745 942.84 755.603C942.931 755.459 943.122 755.419 943.265 755.513L993.751 788.327C993.893 788.42 993.934 788.612 993.841 788.754L993.594 788.894Z" fill="#192B51"/>
<path d="M995.374 788.52C995.288 789.508 994.985 790.163 993.646 790.382C992.665 790.54 991.869 789.434 991.785 788.651C991.678 787.664 992.509 786.938 993.514 786.79C994.52 786.64 995.454 787.618 995.374 788.52Z" fill="#544E55"/>
<path d="M946.015 581.523C945.926 582.512 945.625 583.167 944.284 583.386C943.306 583.544 942.509 582.438 942.424 581.655C942.317 580.668 943.148 579.943 944.153 579.793C945.159 579.644 946.093 580.622 946.015 581.523Z" fill="#192B51"/>
<path d="M906.742 795.754L863.338 797.342C862.884 797.359 862.504 797.004 862.488 796.551C862.47 796.099 862.825 795.718 863.277 795.701L906.681 794.115C907.135 794.097 907.515 794.452 907.533 794.904C907.549 795.357 907.194 795.738 906.742 795.754Z" fill="white"/>
<path d="M924.514 795.105L912.722 795.535C912.27 795.553 911.89 795.198 911.872 794.746C911.856 794.293 912.21 793.911 912.663 793.896L924.454 793.464C924.906 793.448 925.287 793.802 925.304 794.255C925.32 794.707 924.967 795.088 924.514 795.105Z" fill="white"/>
<path d="M1028.41 791.306L1005.86 792.13C1005.4 792.147 1005.02 791.793 1005.01 791.34C1004.99 790.887 1005.34 790.506 1005.8 790.489L1028.35 789.665C1028.81 789.649 1029.19 790.002 1029.2 790.456C1029.22 790.908 1028.87 791.288 1028.41 791.306Z" fill="white"/>
</g>
<defs>
<clipPath id="clip0_126_10241">
<rect width="1440" height="853" fill="white" transform="translate(-1)"/>
</clipPath>
</defs>
</svg>
